/* XPM */
static char *result[] = {
/* columns rows colors chars-per-pixel */
"64 64 254 2 ",
"   c #020202",
".  c #0D0301",
"X  c #050608",
"o  c #1E0301",
"O  c #140501",
"+  c #060515",
"@  c #121611",
"#  c #2B0203",
"$  c #290505",
"%  c #370404",
"&  c #350A11",
"*  c #0B0B29",
"=  c #292929",
"-  c #373536",
";  c #231E22",
":  c #470309",
">  c #52020A",
",  c #560209",
"<  c #490B12",
"1  c #570316",
"2  c #690305",
"3  c #7A0103",
"4  c #780411",
"5  c #4E3433",
"6  c #762D2C",
"7  c #4E1921",
"8  c #4F433B",
"9  c #6C4130",
"0  c #030149",
"q  c #06045A",
"w  c #14185F",
"e  c #2D3059",
"r  c #020165",
"t  c #06046D",
"y  c #191B67",
"u  c #010275",
"i  c #01017C",
"p  c #0A0676",
"a  c #1B1C7C",
"s  c #161977",
"d  c #170C75",
"f  c #301664",
"g  c #1A2379",
"h  c #15236E",
"j  c #24297A",
"k  c #2D2E72",
"l  c #2F1659",
"z  c #5A276D",
"x  c #66224F",
"c  c #354C4D",
"v  c #3D4461",
"b  c #484849",
"n  c #5A5B5B",
"m  c #575756",
"M  c #4C4D4A",
"N  c #6E5352",
"B  c #6C6B6C",
"V  c #666865",
"C  c #737372",
"Z  c #7B7B7C",
"A  c #757877",
"S  c #70796B",
"D  c #5C5863",
"F  c #880104",
"G  c #950C10",
"H  c #A90503",
"J  c #A50312",
"K  c #A6260C",
"L  c #8D2F2C",
"P  c #942A1A",
"I  c #D40600",
"U  c #DD1412",
"Y  c #A54713",
"T  c #92787B",
"R  c #AE736B",
"E  c #945357",
"W  c #D07C6B",
"Q  c #E45F5D",
"!  c #738476",
"~  c #7B836C",
"^  c #BD8679",
"/  c #80807E",
"(  c #020185",
")  c #060287",
"_  c #1A1B87",
"`  c #07009B",
"'  c #11168E",
"]  c #271D87",
"[  c #301E8E",
"{  c #1D2386",
"}  c #082D91",
"|  c #232583",
" . c #23248B",
".. c #2A2B89",
"X. c #2D318C",
"o. c #273689",
"O. c #333787",
"+. c #2B2B95",
"@. c #2A3397",
"#. c #323393",
"$. c #3A3C94",
"%. c #3A3C9B",
"&. c #35379A",
"*. c #392C97",
"=. c #1409AB",
"-. c #3A3AA4",
";. c #2E2CA5",
":. c #1D30A6",
">. c #453B9C",
",. c #46358A",
"<. c #423EA6",
"1. c #583EB9",
"2. c #4D0283",
"3. c #3C429C",
"4. c #3B4092",
"5. c #3A588E",
"6. c #3D42A3",
"7. c #3A46AA",
"8. c #3E4AB3",
"9. c #2C4BAC",
"0. c #45478A",
"q. c #485288",
"w. c #43439B",
"e. c #474B9B",
"r. c #565697",
"t. c #505394",
"y. c #6B5B98",
"u. c #696899",
"i. c #777897",
"p. c #76718C",
"a. c #4345A4",
"s. c #454AA5",
"d. c #454AAA",
"f. c #4B4CAC",
"g. c #4846A8",
"h. c #544BAA",
"j. c #4B54A7",
"k. c #5557AA",
"l. c #4947B3",
"z. c #534AB5",
"x. c #4B54B6",
"c. c #5255B4",
"v. c #585BB6",
"b. c #6855B1",
"n. c #5E62BB",
"m. c #5C63AD",
"M. c #6264BD",
"N. c #666AB8",
"B. c #7873B3",
"V. c #5A609C",
"C. c #383AC0",
"Z. c #473DD2",
"A. c #4946C8",
"S. c #5859C5",
"D. c #4E4CC6",
"F. c #625BC8",
"G. c #5C62C3",
"H. c #5E6AC9",
"J. c #5771D2",
"K. c #6265C5",
"L. c #686AC8",
"P. c #7377C9",
"I. c #6D6BD8",
"U. c #7A7DDB",
"Y. c #7577D5",
"T. c #726ECF",
"R. c #7777E3",
"E. c #746FEB",
"W. c #837E85",
"Q. c #886F84",
"!. c #847CA4",
"~. c #837DEF",
"^. c #8D78D5",
"/. c #7D8785",
"(. c #7B81D6",
"). c #7F81E5",
"_. c #848385",
"`. c #8B8B8B",
"'. c #898888",
"]. c #88908C",
"[. c #889299",
"{. c #939393",
"}. c #9B9B9B",
"|. c #98979A",
" X c #8D8E98",
".X c #B0918D",
"XX c #9BA39A",
"oX c #A9A298",
"OX c #9A9BA2",
"+X c #8686B9",
"@X c #918FAC",
"#X c #9BA3AB",
"$X c #9FA3BE",
"%X c #ACABAC",
"&X c #A5A3A5",
"*X c #A5A9B5",
"=X c #B3B4B3",
"-X c #BDBDBC",
";X c #B7B8B7",
":X c #ADB3B2",
">X c #A49BA0",
",X c #C69187",
"<X c #D2A697",
"1X c #C6B3B0",
"2X c #F2AEAC",
"3X c #BDC3B7",
"4X c #DAC7B6",
"5X c #989BC6",
"6X c #8284DA",
"7X c #9493CC",
"8X c #A5ABC6",
"9X c #B6BAC6",
"0X c #B7BAD4",
"qX c #B0AFCD",
"wX c #8285E4",
"eX c #858AE5",
"rX c #888AEC",
"tX c #8D91EB",
"yX c #9494EC",
"uX c #8989F6",
"iX c #8E91F3",
"pX c #9194F3",
"aX c #9494FE",
"sX c #9899FB",
"dX c #918FF0",
"fX c #AFAFEB",
"gX c #9EA4C4",
"hX c #D1BBC6",
"jX c #BDC2C8",
"kX c #BDCAD4",
"lX c #C8C8C7",
"zX c #D9CAC8",
"xX c #D3D7CC",
"cX c #C4C8D3",
"vX c #D3D3D2",
"bX c #DBDADB",
"nX c #D5D9D7",
"mX c #CBD4D1",
"MX c #EAD2CC",
"NX c #D9E5DA",
"BX c #E5E4DB",
"VX c #F3F5DD",
"CX c #C9CBFA",
"ZX c #D1D2EA",
"AX c #E9D6EA",
"SX c #DCE5E7",
"DX c #DAEDF2",
"FX c #E5E5E5",
"GX c #F5F6E7",
"HX c #E4E9F6",
"JX c #FCFEFE",
"KX c #F2FEFE",
"LX c #EFEEEC",
"PX c None",
/* pixels */
"PXPXPXPXPXPXPXPXPXPXPXPXPXPXPXPXPXPXPXPXPXPXPXPXPXPXPXPXPXPXPXPXPXPXPXPXPXPXPXPXPXPXPXPXPXPXPXPXPXPXPXPXPXPXPXPXPXPXPXPXPXPXPXPX",
"PXPXPXPXPXPXPXPXPXPXPXPXPXPXPXPXPXPXPXPXPXPXPXPXPXPXPXPXPXPXPXPXPXPXPXPXPXPXPXPXPXPXPXPXPXPXPXPXPXPXPXPXPXPXPXPXPXPXPXPXPXPXPXPX",
"PXPXPXPXPXPXPXPXPXPXPXPXPXPXPXPXPXPXPXPXPXPXPXPXPXPXPXPXPXPXPXPXPXPXPXPXPXPXPXPXPXPXPXPXPXPXPXPXPXPXPXPXPXPXPXPXPXPXPXPXPXPXPXPX",
"PXPXPXPXPXPXPXPXPXPXPXPXPXPXPXPXPXPXPXPXPXPXPXPXPXPXPXPXPXPXPXPXPXPXPXPXPXPXPXPXPXPXPXPXPXPXPXPXPXPXPXPXPXPXPXPXPXPXPXPXPXPXPXPX",
"PXPXPXPXPXPXPXPXPXPXPXPXPXPXPXPXPXPXPXPXPXPXPXPXPXPXPXPXPXPXPXPXPXPXPXPXPXPXPXPXPXPXPXPXPXPXPXPXPXPXPXPXPXPXPXPXPXPXPXPXPXPXPXPX",
"PXPXPXPXPXPXPXPXPXPXPXPXPXPXPXPXPXPXPXPXPXPXPXPXPXPXPXPXPXPXPXPXPXPXPXPXPXPXPXPXPXPXPXPXPXPXPXPXPXPXPXPXPXPXPXPXPXPXPXPXPXPXPXPX",
"PXPXPXPXPXPXPXPXPXPXPXPXPXPXPXPXPXPXPXPXPXPXPXPXPXPXPXPXPXPXPXPXPXPXPXPXPXPXPXPXPXPXPXPXPXPXPXPXPXPXPXPXPXPXPXPXPXPXPXPXPXPXPXPX",
"PXPXPXPXPXPXPXPXPXPXPXPXPXPXPXPXPXPXPXPXPXPXPXPXPXPXPXPXPXPX@Xi.+X+Xi.ZXPXPXPXPXPXPXPXPXPXPXPXPXPXPXPXPXPXPXPXPXPXPXPXPXPXPXPXPX",
"PXPXPXPXPXPXPXPXPXPXPXPXPXPXPXPXPXPXPXPXPXPXPXPXPXPXPXPXHX8X<.A.S.A.=.6XbXPXPXPXPXPXPXPXPXPXPXPXPXPXPXPXPXPXPXPXPXPXPXPXPXPXPXPX",
"PXPXPXPXPXPXPXPXPXPXPXPXPXPXPXPXPXPXPXPXPXPXPXPXPXPXPXPXgX` R.eXiXuX^.D.k.BXPXPXPXPXPXPXPXPXPXPXPXPXPXPXPXPXPXPXPXPXPXPXPXPXPXPX",
"PXPXPXPXPXPXPXPXPXPXPXPXPXPXPXPXPXPXPXPX!.U.ZXPXPXPXPX7Xz.Y.yXsXyXsXsX6Xv.h.ZXPXPXPXHXyXS.hXPXPXPXPXPXPXPXPXPXPXPXPXPXPXPXPXPXPX",
"PXPXPXPXPXPXPXPXPXPXPXPXPXPXPXPXPXPXPXPXh.Z.rXCXCXCX8X0.z.Y.L.N.m.N.N.T.E.+.+X0XCXCXfXI.=.0XPXPXPXPXPXPXPXPXPXPXPXPXPXPXPXPXPXPX",
"PXPXPXPXPXPXPXPXPXPXPXPXPXPXPXPXPXPXPXPXv.A.E.E.6Xc.` j.v.k.;.' u u | l.v.e.' ;.P.~.E.L.=.fXPXPXPXPXPXPXPXPXPXPXPXPXPXPXPXPXPXPX",
"PXPXPXPXPXPXPXPXPXPXPXPXPXPXPXPXPXPXPXPXN.8.(.aXK.-.w.Z.X.{ @. .h j ;._ j l.l.3.l.uXuXm.=.kXPXPXPXPXPXPXPXPXPXPXPXPXPXPXPXPXPXPX",
"PXPXPXPXPXPXPXPXPXPXPXPXPXPXPXPXPXPXPXFXk._ k.(.k.e.k.j.&.t  .g | a | _  .-.S.c.$.P.T.&.` cXPXPXPXPXPXPXPXPXPXPXPXPXPXPXPXPXPXPX",
"PXPXPXPXPXPXPXPXPXPXPXPXPXPXPXPXPXPXPXPXr.i %.c.j.K.R.N.-.X.g { { | s j &.k.P.R.k.j.7.o.i 0XPXPXPXPXPXPXPXPXPXPXPXPXPXPXPXPXPXPX",
"PXPXPXPXPXPXPXPXPXPXPXPXPXPXPXPXPXPXPXPXB.-.#.| S.wXpXP.m.s.j | a j | $.j.N.6XiXT.s.] g.v cXPXPXPXPXPXPXPXPXPXPXPXPXPXPXPXPXPXPX",
"PXPXPXPXPXPXPXPXPXPXPXPXPXPXPXPXPXPXPXPXPX#X) M.uXiXeXT.n.c.j..._ { 3.k.n.K.).pXuXI.$.t.HXPXPXPXPXPXPXPXPXPXPXPXPXPXPXPXPXPXPXPX",
"PXPXPXPXPXPXPXPXPXPXPXPXPXPXPXPXPXPXPXPXkXp.` L.wXaXiXY.L.K.v.X.s a 3.n.Y.K.rXaXtXR.a.k fXHXPXPXPXPXPXPXPXPXPXPXPXPXPXPXPXPXPXPX",
"PXPXPXPXPXPXPXPXPXPXPXPXPXPXPXPXPXPXPXFX) u k.P.eXiXrXK.K.K.-.#. .@.&.x.T.v.R.iXtXY.S.+.t 8XPXPXPXPXPXPXPXPXPXPXPXPXPXPXPXPXPXPX",
"PXPXPXPXPXPXPXPXPXPXPXPXPXPXPXPXPXPXPXPXv #.I.uXsXwXT.x.s.s...-.a.d.X.#.f.f.K.(.aXiXeXS.t 9XPXPXPXPXPXPXPXPXPXPXPXPXPXPXPXPXPXPX",
"PXPXPXPXPXPXPXPXPXPXPXPXPXPXPXPXPXPXPXHXt.%.(.sXeXM.3.$.....#.x.v.c.%.X.X.X.#.c.Y.aX(.N.p 9XPXPXPXPXPXPXPXPXPXPXPXPXPXPXPXPXPXPX",
"PXPXPXPXPXPXPXPXPXPXPXPXPXPXPXPXPXPXPXSXt.S.uXeXK.%.g s { %.c.T.U.T.K.a.+.a a #.k.wXeX(.( 9XPXPXPXPXPXPXPXPXPXPXPXPXPXPXPXPXPXPX",
"PXPXPXPXPXPXPXPXPXPXPXPXPXPXPXPXPXPXPXVX*.U.wXv.#.&.d.{ %.v.K.wXiXtXY.S.d.a 3.6. .8.(.uX` 0XPXPXPXPXPXPXPXPXPXPXPXPXPXPXPXPXPXPX",
"PXPXPXPXPXPXPXPXPXPXPXPXPXPXPXPXPXPXPXPX*.' r.;.7.4.j g.-.v.6XiXyXpXtXN.3.l.&.O.<.$.3.e.u 9XPXPXPXPXPXPXPXPXPXPXPXPXPXPXPXPXPXPX",
"PXPXPXPXPXPXPXPXPXPXPXPXPXPXPXPXPXPXPXPXjXu.r  .l.X.j -.d.K.yXiXyXaXaX(.x.a.{ ..h.#.i k 7XFXPXPXPXPXPXPXPXPXPXPXPXPXPXPXPXPXPXPX",
"PXPXPXPXPXPXPXPXPXPXPXPXPXPXPXPXPXPXVXPXPX*Xr _ w.3.g p f.Y.sXaXtXrXiX(.n.#.s X.<.#.( t.PXPXPXPXPXPXPXPXPXPXPXPXPXPXPXPXPXPXPXPX",
"PXPXPXPXPXPXPXPXPXPXPXPXPXPXPXPXPXPXPXPXPX*X) l.3.f.7. .f.Y.yXrXtXrXsXeXM.j X.x.g.w.) 0.PXPXPXPXPXPXPXPXPXPXPXPXPXPXPXPXPXPXPXPX",
"PXPXPXPXPXPXPXPXPXPXPXPXPXPXPXPXPXPXPXPXkXP._ <.n.v.f.| 3.M.(.pXaXuX).L.z. .6.f.S.j.&.g.5XFXPXPXPXPXPXPXPXPXPXPXPXPXPXPXPXPXPXPX",
"PXPXPXPXPXPXPXPXPXPXPXPXPXPXPXPXPXPXPXPXq ` g.h.G.G.s.y k f.c.U.sXtXI.x.$.y %.x.L.v.t.l.q 8XPXPXPXPXPXPXPXPXPXPXPXPXPXPXPXPXPXPX",
"PXPXPXPXPXPXPXPXPXPXPXPXPXPXPXPXPXPXPXSXq.) D.^.S.7.w.w t +.l.M.B.tXI.+.y + k A.d.G.v.8.u 9XPXPXPXPXPXPXPXPXPXPXPXPXPXPXPXPXPXPX",
"PXPXPXPXPXPXPXPXPXPXPXPXPXPXPXPXPXPXPXFXq.C.I.B.( u X.y y  .+.k.~.sXj.d a y o.@.} J.Y.n.i :XPXPXPXPXPXPXPXPXPXPXPXPXPXPXPXPXPXPX",
"PXPXPXPXPXPXPXPXPXPXPXPXPXPXPXPXPXPXPXFXs.x.H.l.&X!.u g { { o.7.T.^.d.' a ] g f x g.M.I.p qXPXPXPXPXPXPXPXPXPXPXPXPXPXPXPXPXPXPX",
"PXPXPXPXPXPXPXPXPXPXPXPXPXPXPXPXPXPXPXLX,.e.r.5.DXZXt a { X.7.@.f y 9.9.] j g z J z a.K.( 9XPXPXPXPXPXPXPXPXPXPXPXPXPXPXPXPXPXPX",
"PXPXPXPXPXPXPXPXPXPXPXPXPXPXPXPXPXPXPXPXp u 5XDX8Xy.*.6.w.w.<.X.s g %.8.6.<.6.O.2.bXAX( r 9XPXPXPXPXPXPXPXPXPXPXPXPXPXPXPXPXPXPX",
"PXPXPXPXPXPXPXPXPXPXPXPXPXPXnXmXZXPXPXPXkXQ.R xXu.u 8.b.v.w.r.X.d ] g.8.j.H.l.+.} 3X1XN *XBXPXPXFXnXmXPXPXPXPXPXPXPXPXPXPXPXPXPX",
"PXPXPXPXPXPXPXPXPXPXPXPXPXPX:Xn W.SXPXPXGX2XK Y z :.x.B.x.8.>.*.[ ..a.z.x.H.H.8.k 6 Y ^ VXKXBXKX%XD /.SXPXPXPXPXPXPXPXPXPXPXPXPX",
"PXPXPXPXPXPXPXPXPXPXPX-X].#X].S M B T .X^ E F F l 9.H.F.e.7.+.>.v e. .&.<.g.N.v.s 2 F H R .X.X~ m n ! XX{.&XPXPXPXPXPXPXPXPXPXPX",
"PXPXPXPXPXPXPXFXvXPXPXPX;Xm 3XjXN 2 F H 3 ,XvXzXy.:.x.g.O.X.%.q.e.h.3.o.&.h.b.z.} qX4X4XK F K 2 < .XNX/.`.bXJXPXnXvXPXPXPXPXPXPX",
"PXPXPXPXPXPXPX=X|.:XbXPXmXm nXnX<XE 4 L R PXPXPX Xu e.0.#.*.8.7.l.z.3.4.X.-.<.[ ' AXPXPX<XE 2 L .X4XSX/.OXLXLXhX}.>XbXPXPXPXPXPX",
"PXPXPXPXPXPX%X{.`.{.M A >X{.b %XKX&Xb A PXPXPXPX@X( x.g %.z.z.1.>.z.g.g.1.y -.-.d ZXPXPXPXhX* ! BXLXb p.}.`.n S |.'.&XmXPXPXPXPX",
"PXPXPXPXPXFX}.{.{./ = Z ].{.b {.vXm }.PXPXPXPXPXPX8X( i >.g.e.-.T.R.S.<.h.O.( u : MXPXPXPXPXcXM =X3X- _.OX|.= B {.].'.lXPXPXPXPX",
"PXPXPXPXPXbXV Z {.`.B C '.{.n m _.|.FXPXPXPXPXPXPXPX/.j i %.l.d.V.(.S.d...r B.*X,XAXPXPXPXPXPX1X'.C M _.`.C A Z {.{.V &XPXPXPXPX",
"PXPXPXPXPXbXM '.`.`.|.V n `.V ; Z PXPXPXPXPXPXPXPXPXGXi.i -.g.a.$.p 3.-.a y vXPXPXPXPXPXPXPXPXPX1XX - `.W.b `.{.`.`.n &XPXPXPXPX",
"PXPXPXPXPXPXFXC   b = B {.}.= `.PXPXPXPXPXPXPXPXPXPXPXPX*Xr +.u u ) h i V.xXPXPXPXPXPXPXPXPXPXPXPXmX  '.}._.b = =   lXPXPXPXPXPX",
"PXPXPXPXPXPXPXvX;X;X;X`.m n &XFXPXPXPXPXPXPXPXPXPXPXPXPX9Xr i gXjX0Xm 0 u.PXPXPXPXPXPXPXPXPXPXPXPXPXlXZ M B =X-XlX%XPXPXPXPXPXPX",
"PXPXPXPXPXPXPXPXPXPXPX-Xn Z PXPXPXPXPXPXPXPXPXPXPXPXPXPX;Xr p ZXPXPX~ + u.PXPXPXPXPXPXPXPXPXPXPXPXPXPX%Xm `.PXPXPXPXPXPXPXPXPXPX",
"PXPXPXPXPXPXPXPXPXPXPXPXPXPXPXPXPXPXPXPXPXPXPXPXPXPXPXPXjXr i xXPXPXB + p.PXPXPXPXPXPXPXPXPXPXPXPXPXPXPXPXPXPXPXPXPXPXPXPXPXPXPX",
"PXPXPXPXPXPXPXPXPXPXPXPXPXPXPXPXPXPXPXPXPXPXPXPXPXPXPX0XV.r.cXPXPXPXxX`.y OXHXPXPXPXPXPXPXPXPXPXPXPXPXPXPXPXPXPXPXPXPXPXPXPXPXPX",
"PXPXPXPXPXPXPXPXPXPXPXPXPXPXPXPXPXPXPXPXPXPXPXPXPXPXPX0.q i.PXPXPXPXPXjX+ 0 0XPXPXPXPXPXPXPXPXPXPXPXPXPXPXPXPXPXPXPXPXPXPXPXPXPX",
"PXPXPXPXPXPXPXPXPXPXPXPXPXPXPXPXPXPXPXPXPXPXPXPXPXPXFXN.q !.PXPXPXPXPXlX  q kXPXPXPXPXPXPXPXPXPXPXPXPXPXPXPXPXPXPXPXPXPXPXPXPXPX",
"PXPXPXPXPXPXPXPXPXPXPXPXPXPXPXPXPXPXPXPXPXPXPXPXPXNXV.0 *XPXPXPXPXPXPXFXmXe e 9XPXPXPXPXPXPXPXPXPXPXPXPXPXPXPXPXPXPXPXPXPXPXPXPX",
"PXPXPXPXPXPXPXPXPXPXPXPXPXPXPXPXPXPXPXPXPXPXPXnXPXSX$X@XSXPXPXPXPXPXGXPXPX! v [.FXnXPXPXPXPXPXPXPXPXPXPXPXPXPXPXPXPXPXPXPXPXPXPX",
"PXPXPXPXPXPXPXPXPXPXPXPXPXPXPXPXPXPXPXPXPXPXFX/.bXJXJXJXGXPXPXPXPXPXPXPXBXXXOX;X&XT ;XPXPXPXPXPXPXPXPXPXPXPXPXPXPXPXPXPXPXPXPXPX",
"PXPXPXPXPXPXPXPXPXPXPXPXPXPXPXPXPXPXPXPXPXPXxX'.:X9X=X=X#X3XPXPXPXPXPXxXn M 5 B |.W.lXPXPXPXPXPXPXPXPXPXPXPXPXPXPXPXPXPXPXPXPXPX",
"PXPXPXPXPXPXPXPXPXPXPXPXPXPXPXPXPXPXPXPXPXBXxXxXMXNXNXNX=X*XPXPXPXPXPXlXm A '.>X&X{.%XvXPXPXPXPXPXPXPXPXPXPXPXPXPXPXPXPXPXPXPXPX",
"PXPXPXPXPXPXPXPXPXPXPXPXPXPXPXPXPXPXPXPXPX&XoXVXLXVXBXGX:X}.PXPXPXPXPXnXA '.}.%XXX].T T MXPXPXPXPXPXPXPXPXPXPXPXPXPXPXPXPXPXPXPX",
"PXPXPXPXPXPXPXPXPXPXPXPXPXPXPXPXPXPXPXPXE F L x 5 5 8 b   / PXPXPXPXPXhX  = ; - 5 6 G L 3 hXPXPXPXPXPXPXPXPXPXPXPXPXPXPXPXPXPXPX",
"PXPXPXPXPXPXPXPXPXPXPXPXPXPXPXPXPXPXLX<XI H : & : % O & . b {.NXPXPX3XB .       . > 2 3 I W lXPXPXPXPXPXPXPXPXPXPXPXPXPXPXPXPXPX",
"PXPXPXPXPXPXPXPXPXPXPXPXPXPXPXPXPXPX1XR U G X : : 1 < : 7 #   kXPXPXV   @ X X X X O X : I Q oXMXPXPXPXPXPXPXPXPXPXPXPXPXPXPXPXPX",
"PXPXPXPXPXPXPXPXPXPXPXPXPXPXPXPXPXQ W XX5 # & > , , : , 1 : o vXPXPX!   X X   X @ X X + # Z oXI MXPXPXPXPXPXPXPXPXPXPXPXPXPXPXPX",
"PXPXPXPXPXPXPXPXPXPXPXPXPXPXPXFXW G L c +   $ > $ O O @   n nXPXPXPXPX&X    . O X & % X   c N 3 Q 2XPXPXPXPXPXPXPXPXPXPXPXPXPXPX",
"PXPXPXPXPXPXPXPXPXPXPXPXPXPXPXMXH <   # O $ : : % $ o O A lXPXPXPXPXPXNX&X5 o $ $ 1 : o $ .   + 3 ,XPXPXPXPXPXPXPXPXPXPXPXPXPXPX",
"PXPXPXPXPXPXPXPXPXPXPXPXPXPXPXlX    > , & 1 , < : > # $ zXPXPXPXPXPXPXPXPXN $ : % > < % : < > o . ].PXPXPXPXPXPXPXPXPXPXPXPXPXPX"
};
