/* XPM */
static char *result[] = {
/* columns rows colors chars-per-pixel */
"64 64 109 2 ",
"   c #002E00",
".  c #003500",
"X  c #003C00",
"o  c #004400",
"O  c #024B00",
"+  c #0B4D00",
"@  c #045600",
"#  c #0C5201",
"$  c #0B5800",
"%  c #135401",
"&  c #195506",
"*  c #165A01",
"=  c #1C5C01",
"-  c #1B5C09",
";  c #205F05",
":  c #27541D",
">  c #1E6202",
",  c #236403",
"<  c #296702",
"1  c #246901",
"2  c #2C6D01",
"3  c #24640A",
"4  c #296508",
"5  c #27690A",
"6  c #2B6C0A",
"7  c #316F02",
"8  c #336F08",
"9  c #2E7101",
"0  c #2E720A",
"q  c #307001",
"w  c #357A04",
"e  c #397D05",
"r  c #32750A",
"t  c #357B0B",
"y  c #397E0C",
"u  c #2A6B10",
"i  c #327512",
"p  c #367A11",
"a  c #3A7E13",
"s  c #2C5822",
"d  c #335D27",
"f  c #355D2C",
"g  c #3C672C",
"h  c #46702E",
"j  c #4C762E",
"k  c #4D782F",
"l  c #4E7730",
"z  c #4D7830",
"x  c #527A4B",
"c  c #3C8306",
"v  c #3F8900",
"b  c #378009",
"n  c #3C830B",
"m  c #3F890C",
"M  c #3C8213",
"N  c #3F8811",
"B  c #408707",
"V  c #438D04",
"C  c #41860A",
"Z  c #448C0C",
"A  c #439001",
"S  c #489600",
"D  c #4C9C01",
"F  c #46910C",
"G  c #49940D",
"H  c #4D9B0D",
"J  c #509E0D",
"K  c #418712",
"L  c #438C12",
"P  c #488E11",
"I  c #438B1A",
"U  c #479213",
"Y  c #4A9412",
"T  c #4E9A12",
"R  c #479119",
"E  c #4A9319",
"W  c #4F9819",
"Q  c #519E13",
"!  c #529E1A",
"~  c #4EA000",
"^  c #4FA00D",
"/  c #50A100",
"(  c #51A10E",
")  c #53A213",
"_  c #58A617",
"`  c #55A319",
"'  c #59A71B",
"]  c #58A81A",
"[  c #559E21",
"{  c #598935",
"}  c #5A8A3A",
"|  c #6AA13F",
" . c #568049",
".. c #5B854A",
"X. c #658E47",
"o. c #658E4A",
"O. c #659047",
"+. c #6C9F45",
"@. c #67904B",
"#. c #69914D",
"$. c #6F9D4C",
"%. c #6CA241",
"&. c #73A34F",
"*. c #76A851",
"=. c #79AA54",
"-. c #7DB253",
";. c #7FB258",
":. c #678361",
">. c #81B458",
/* pixels */
"+.| | | | | %.{ h k l z l z l z z z z k z z j l l j j j z j j j j { %.| %.} d g z k l j j j j j k j k h s h %.%.%.%.%.+.s f : :.",
"J D D / ~ H H e 1 9 9 2 2 2 2 2 2 2 2 2 2 2 2 2 2 2 2 2 2 2 2 9 1 c H D J c O * 2 2 2 2 9 2 2 9 2 2 2 > O > H ~ ~ D ~ v @ $ o x ",
"` ( ) ( ) y & 5 q q q q q q q q q q q q q q q q q q 9 q q q q q 7 q w e t q 2 2 8 q q q 9 q 8 q r 2 % & + 5 ! ( Q Q ) Q W I o x ",
"T T H T T 0 O < q q q q q q q q q q w q q 7 q q q q 9 q q q q q q w q q q q 7 8 q q 7 q 9 9 q q 7 1 $ % # 6 T ( ^ ^ H ^ _ E @  .",
"- - - 2 w q 2 2 q q 7 7 q q 2 C T H H C 2 q q q 7 q 7 q q q 2 c H H H H Q V 2 7 q q q q 7 w Q L O < U Y G G ) ^ ) U * 6 T ) V =.",
"% % + < q q q q q q q 7 q q 9 Z ) J ) C 2 q 2 q 7 q 7 q q q 2 C ! J Q ( ) F 9 q q q q q 2 c ) U O 6 ) ) ) ^ ^ ) ) L @ > W T D >.",
"E e < 7 q q 9 Z J H Q n 2 B Q H ( Z w q q q 7 7 9 2 q q q 9 q q q V ) ( J J J Z 2 q 2 e H H ( ^ U T ^ ( ( ^ ) U * 1 R L * 0 D -.",
"! c 2 q q q 9 Z ) Q ) C 2 F ) J ) m 2 q q q q q q 7 q q q 7 q q 2 n ) J ( ( ) U 2 q 7 c ) ( ( ( ( ( ( ( ( ^ ) R O 3 ` R O 3 S ;.",
"e q 2 Z T H T r * N ` H H H ) n * y Q T T C 7 q q 7 7 q q q q q q 2 - t ) ^ ( L O 0 W H ) ( ( ( ( ( ) ^ ) R > - # * w q 2 6 $ ..",
"7 7 7 Z ) ( ) r o y T T ( Q T r o y ) J Q Z 2 q q 9 q q q q q q q 1 o 9 ) ^ ) M o 0 ` ( ^ H T T ( H T T T L O + # * 2 7 q 8 o x ",
"7 7 7 w w F ) Y R r * N ` b > b U J ( Z w w 7 7 9 7 q q 9 c Y G T T U T ` m > - O 6 ` ^ ) F > 0 ` F > 3 > 0 R L 1 7 7 q 2 8 > o.",
"8 7 q 7 2 Z Q Q ` r o M ` i o t ! Q ) B 1 7 7 7 q q 7 q 2 C _ J ( ( ( ( ) n O # O 0 W T ` M o 4 ` m O # O 4 ) T q q 7 q 7 r 1 o.",
"8 7 7 7 q 1 > Z ` 0 O = > * + = ; 2 e w q q 9 q 2 q q q 9 w q V ^ ( ^ ( ( H R a O * 3 > 1 = # * > 9 U M O 5 ` T 9 9 q q 7 r 1 X.",
"7 7 q 2 q = o n ` 0 O + + + % + O , q 2 2 q 7 7 q q 7 q q q 2 C _ T W ` T ` ` I O # O + + + # # O > ) U O 1 Q Y 9 9 9 9 9 q < X.",
"8 q q q q 7 5 q e , + % % ; 6 4 5 7 7 9 q 7 7 9 9 7 q q q 7 2 w w 9 3 > 3 3 > 0 E R R a O 1 R U U U ^ ^ U T ` U % , W G T U 1 X.",
"7 q q 7 q q q 2 9 = O # O , q 9 q q q q q q q q 9 9 9 9 q 7 7 7 9 , O + + # o 0 ` ) ) Z O 6 W ` ) ) W Q ) ( ( U O > T Q ` W 1 X.",
"8 7 7 q q 7 7 q q C R P R U T c 7 q 7 7 7 q 2 C T Y Y B 7 7 q q q 2 2 1 5 2 < y ) ( ( T R M > t ) F > t J ( ( T R U Q U 1 5 1 O.",
"7 7 7 q q 7 9 q 2 P ! ) ) ( ( C 2 9 7 7 9 q 9 C ) ( ) F 2 q 7 q q 7 q q q q 2 n T Q ( ( ) L o 5 ` m O 1 Q ( J ) ) ( ` L O & 1 O.",
"8 7 2 q q q q q 7 1 > Z ( ( ^ H G c 2 B H G G H ( ( ) Z 2 q q q q q q 7 q 7 9 2 3 t ) H ( F < 2 e w 1 r Q ( ( J ( G 1 < < 6 1 X.",
"7 7 q q 9 7 7 7 7 = o a ` ( ( ( ` Z 1 F ) ( ) ( ( H _ Z 2 7 7 q 7 q q q 7 q q < o 0 ) ( ) U 9 q 2 q 2 c Q ( ( ( ( U @ # 8 r 1 X.",
"8 q 7 q q 9 7 q q 2 1 < > Z ( H ) y O M ) ( ( ( _ m > 2 9 9 9 7 q q 7 q 9 7 q 2 < w ) L < 5 7 9 q q 7 2 < r Q ( ^ T U m * 4 V *.",
"7 q q q 7 q 2 q 7 q r ; o n ` Q ` t X y ) ( ) J ` M X - q 7 q 9 q 7 9 q q 7 q q 2 c ` N o * q q q q q < o 3 ! ( ( ( ) U o 3 D -.",
"8 7 q q q q q q 7 7 q 2 1 r c r 4 y U H ) n < r c q 1 2 q q q q 7 q 7 q q q q 7 2 w c r 1 2 7 9 q q 2 7 6 5 5 t ) ) ( H U Y D -.",
"7 2 2 7 q q 9 q q q 7 q q 2 2 = X y ` ( ) t X * 2 7 q 9 9 7 q q 9 9 7 q q 2 q 7 7 q 2 2 q q q q q q q q q 1 o 3 ! ^ ( ( ) ` D -.",
"Y G G e 2 q q 9 7 q 2 C G G G F L t > m _ G Z Z G G G G G C q 9 q 7 2 e Y B 2 q q 7 q 7 q q q 7 q q q 9 q 2 < w ) ^ ( ^ ( Q D -.",
"! ) ! C 2 q q q q q 2 Z ) ( ) ( ` y X a ) ) ) ) ( ) ( ^ ) Z 2 q 9 q 2 v _ F 2 7 7 7 q 9 q 7 9 7 7 q 9 9 q q 2 e Q ( ( ( Q ` D -.",
"Q w < 2 q q q q 2 n G H ) ^ ( H Q t O - 1 n ( J ^ ^ ( ^ ( H G m 2 c F G ( Z 2 e Y G G B 9 q q q q 9 q q 2 e P G ) ^ ( G 1 p D -.",
"[ 6 o < q 7 9 q 9 P _ ( ^ ( ( ) ` p O % o t ` _ ) ) ) ` ) ) ( Z 1 n _ ( ( F 2 n ) Q _ Y 2 q q q q 9 7 q 2 e ) ( ( J ` R O 3 D >.",
"6 5 4 2 q 9 9 9 9 w e G ( ( ( n 6 > + - 5 1 6 r c r 6 6 5 n ) H F H ( H ( J G T ) G e w q q q q 7 q q q 2 e ) J ( U 0 6 < 6 w $.",
"o < q 7 9 q 7 q q 7 1 P _ ( _ r o + + , q ; o * 2 * o O o 9 ) ^ ^ ) ) ) ( ( ( Q _ F 1 2 2 2 7 q 2 q q q 2 e Q ( ) Z O % 2 r > X.",
"4 2 7 q 7 2 q q q q 2 e n y C q < 4 < 5 q 8 < t G U P i O r ` ^ ( P 5 M ( J ( P u p Y F G C q q 7 q q q 2 e ) ( ( Y 1 6 q r 1 #.",
"8 q q q q q q q 7 q q 2 2 2 2 7 9 q 9 9 q q 2 Z ` ( ` M o r ) Q ) N X 6 _ ( ` K . 6 ` ( _ Y 2 q q q q q 2 e Q ( ) H q 9 q r > #.",
"7 q q q 2 q q q 7 9 q q q q q 9 7 q 9 q q 7 7 w c F ( G N t 6 m ) Z o 9 ` F 6 r N Z ) G v e q 7 q 7 q q 9 9 6 t ) H G C q r 1 X.",
"8 q 2 7 9 9 7 q q q 7 q q 7 q 9 9 q 7 7 q q 7 q 1 m ` ^ ` n X 9 ` M o 0 ` M o 0 ` ) ) U 1 2 q 7 9 7 9 2 9 < o 3 ` ( ) T 9 q 1 X.",
"7 B G F F e 2 7 q q q q q q q q 9 7 q q q 2 q q q 9 6 n ) F n t 9 4 + - 0 4 O 0 ) U 6 8 q q q q 7 w F Z F C < 1 6 t T ^ F P 1 X.",
"2 F ( ( ` C 2 q 9 7 q 2 q q 7 q q q q q q q q q 9 3 X t ` ) ] M o + # + O + o u ` K o * q 7 2 7 7 c ) ) ) Y 9 < o > T ( ( T 1 X.",
"P H J C 0 q q q q q q q 7 q q q 7 q q q q q q q q 2 , q C y r 3 + = < < < < 3 2 C t < 1 2 w F m q q 0 n Q H F Z < r ) ( ( T 1 @.",
"! ( ) 6 . , 2 7 7 2 2 2 q q q 7 2 q q 2 7 2 2 2 2 7 q 7 2 = o + + - 9 q 9 q q q 2 2 q q 7 c ` T 2 < X > ) ( ) T 1 w Q ( ( T , X.",
") c 9 y n Z P e 2 c F e q q q q 7 q 7 e F F F F P c 2 q q 2 < < , 1 q q q q q 7 q q q q q 9 9 e Z Z n b 9 n ) Q A G ( ( ( T v &.",
"[ 6 . N _ ( ) V 1 F _ C 1 q q q q 9 2 Z _ ( ( ( ) P 2 q 9 q q q q 7 q q 2 7 9 q q 9 q 2 2 < X 4 ) ( _ F X > W ^ ) ( ( ( ) ` D -.",
"0 t n G ( F c w 2 Z ( G F e q q 2 c Z H ( J J F c e 2 q q q q 2 q q 7 q q q 7 q 7 q 2 w F n , w T ^ ( H b Z J ^ ( ( ( T 9 a S -.",
"O N ` Q ` n 1 2 7 Z ) ( ) C 1 7 2 Z ) ( ( ) _ Z 2 q q 9 9 q q q q q q q q 7 q q 9 9 1 c ` G 2 y ` ) ( ( ) ( ) ) ` ) ) F O 3 D -.",
"+ m _ m r r q q 2 F ( ^ ( F Z e 2 Z ( J ( Z r r q q 9 9 2 q q 7 q q 7 q q q 7 7 7 w P F ) F 2 9 r M ( ( ( H m n 0 b Q F < 6 w %.",
"O M ` 6 X < q q 9 Z ` Q ( _ _ Z < Z _ ( ) r . * 2 2 2 7 q q q q 7 7 2 2 2 2 2 7 2 B ) ( ( U 9 < X > ( ( ) G 2 < o > ` T q r > o.",
", 6 p 6 , 2 9 7 7 r p P ) L p q 7 r p L ) G M N Z Z P e 2 q 7 q 2 e P Z F Z P C 7 c ( ^ ( Z > 6 M L ( ( ( H 9 2 , 2 C n q r 1 #.",
"r * X , q q q 9 q = X M ` r X = q * . y ) ^ ) ` ) ) _ P 2 q 9 q 2 C _ ) ( ( ) P 1 e ` ) ) L X 6 ` ) ( ( _ Y 9 9 8 7 2 2 9 q 1 #.",
"8 < , 2 9 q q 7 q 1 , t L q , , - r b U ( ^ ^ ^ ( U r r q 9 q q 7 w C F ( ( ( J V n r n ( G y N ( ^ ) G r r 9 q 7 7 q q 7 r , #.",
"8 7 q q 7 7 q 9 2 7 7 9 2 2 7 = X n ] ` ) ) ) ^ ` M X = q q q 2 7 q 1 c ) ) J ( _ L X 6 ` ) ) Q ( ^ ` L O % 2 7 q 9 q 7 9 q 1 #.",
"7 7 2 7 7 q q q q q q q q e P c b t r t t t t n Z r , < 9 9 7 7 q q q q r m Q ^ ( I + 3 t n ( ^ ( G t 0 , < 2 q 9 7 7 q q r , #.",
"7 7 q q q 2 2 2 q q 7 7 1 F ) ) ` t o O o o X * 2 7 7 7 q q q q q q q , o 0 ` Q ) M o O X 1 Q ^ _ F o $ q q 7 7 q q 9 q q q 1 #.",
"8 q q 7 9 c Z w 2 q q c Z G ( J Q t O 5 a n n w q q 7 7 q 7 q q 9 q q 2 > 6 a Z ) Y y b a m ( T y 0 , < 7 7 q 7 2 q q 7 2 8 1 #.",
"7 q q q 2 G ` n 1 q 2 P ) ( ( J ` y . M ` ( ` Z 2 q q q q q 7 q 7 q q 9 q , . 6 ) ( ^ ) ) ) ( P . # 9 9 7 9 q 9 q q q q q r 1 O.",
"8 7 7 7 q w y c Z w 2 F ) ( ( Z y t t Z ) F t r q q q 7 q q q q 9 q 9 7 2 r t Z Q J ^ ( H ( ( Y y y m c 9 7 7 q 2 q 9 q q r , #.",
"8 2 2 7 7 * o n ` v 1 Z ( ( ) r . b ` Q _ t X * 2 7 q q q 2 2 q q 7 q q 2 n ) ( ( ) ) ) ) ) ( ( ) ) ] Y 9 9 q 9 q q 7 q q q 1 #.",
"7 e Z B Z 4 O M _ F m G ) ( ( Z r F ) F r t t c V e 2 7 7 w C e q q 9 w m A ^ ^ ) Y e y t m ( ^ ^ F b e 9 q 9 7 q q q 7 2 r 1 X.",
"2 F _ ) ) r X n ) ( ) ( ( ( ^ ) ) Q ( t   t ` ) ' P 2 q 2 C ] F 1 7 1 c ) ) ) ) ( N X O o 1 _ ) ` F o % 7 q 7 q q q q 7 7 q 1 X.",
"C b a F ^ m 0 F ( ^ ^ ^ ( ( H ( ( ^ ( F r L ) F a t q q 7 r a c Z B B F ( G a P ) U t 0 > 2 Z Z Z n , < 9 7 7 7 q q 9 7 q r 1 X.",
"! 0 X K _ ` ) ) ^ ( ) ) ( ) ) ( ( ( ( ( ) ) ` r . * 2 2 q > . 0 _ ( ) ( ) n . 1 ) ) ` Y 9 9 2 2 2 2 2 q 7 9 9 2 2 2 7 q q q , X.",
"! 0 O i M U ( ( ( F M Y ) U M G H ( ( ( ^ F M p p y Z r , 6 i L J J J ( ) U i L ) H Z C 9 q q q q q q q q q 9 w Z n 7 q q 8 c +.",
"! 6 O + o N ) ) ` 0 . M ` r . b _ ) ( ( ` t X p _ _ ' M X r ` ` _ ( ( ( ^ Q ) ) ( F < 1 2 2 q q q 7 2 2 2 2 9 y _ Y q q 7 t D -.",
"Q 0 + = = C ) Z M 6 * y P r * r M F ) G P w * y ) F y 0 = 2 a n M C Z F ( ^ ( ( ( H c V n w > < 7 w B B m b > 9 ) G , 6 c Z S -.",
"` 6 o , 2 F _ 9 X < q 7 2 9 q = X y ` V 1 q 7 Z ` a o - r ; o O o * 1 c ) ) ( ( ( ) ` ) _ L o - 2 e _ ) ` U o > ` L O > Q _ D =.",
"a r r e B B P r = 1 q q q 7 q 1 = w P e 7 q 2 e P t = < 7 2 ; 5 r t m c M b n Z ) Y c n F c = < q q y C Q G 9 b ! Y 9 b Q ) D -.",
"O N ` Q ! B 2 q q q 7 7 7 q 7 q q q 2 7 q 7 7 7 2 7 7 7 7 7 2 C ` Q ) N o + o 0 ` K o * 2 2 q q q < O , Q ` Q ) ^ Q ) ) J ) D -."
};
