/* XPM */
static char *result[] = {
/* columns rows colors chars-per-pixel */
"64 64 121 2 ",
"   c #000001",
".  c #0A0000",
"X  c #010C00",
"o  c #100E00",
"O  c #011400",
"+  c #081600",
"@  c #021A00",
"#  c #0A1B00",
"$  c #041D08",
"%  c #211500",
"&  c #2A1800",
"*  c #361700",
"=  c #3B1A01",
"-  c #032300",
";  c #0B2400",
":  c #052C01",
">  c #062D08",
",  c #162D00",
"<  c #063401",
"1  c #093705",
"2  c #063B00",
"3  c #083B01",
"4  c #09370B",
"5  c #093D09",
"6  c #0B3719",
"7  c #3F2002",
"8  c #750002",
"9  c #681301",
"0  c #054400",
"q  c #094301",
"w  c #064D00",
"e  c #0A4B02",
"r  c #0A440A",
"t  c #0A4A09",
"y  c #154500",
"u  c #035200",
"i  c #0B5401",
"p  c #005C00",
"a  c #0C5B02",
"s  c #0B540A",
"d  c #0C5B0A",
"f  c #0B4511",
"g  c #0B4A11",
"h  c #0C5011",
"j  c #0E5D14",
"k  c #0C6301",
"l  c #0E6B02",
"z  c #0D650B",
"x  c #0E6B0B",
"c  c #0E7301",
"v  c #0F7A00",
"b  c #0F720C",
"n  c #107607",
"m  c #107B06",
"M  c #10770D",
"N  c #107C0C",
"B  c #0E6711",
"V  c #0F6812",
"C  c #116E19",
"Z  c #117413",
"A  c #117B12",
"S  c #137C1B",
"D  c #147921",
"F  c #B40004",
"G  c #108501",
"H  c #128C02",
"J  c #11830E",
"K  c #128B0F",
"L  c #13920E",
"P  c #128512",
"I  c #138B13",
"U  c #13851A",
"Y  c #148C1A",
"T  c #139312",
"R  c #149A14",
"E  c #15911B",
"W  c #179D1E",
"Q  c #15A214",
"!  c #17AB17",
"~  c #17A31B",
"^  c #17AB19",
"/  c #17B119",
"(  c #18B41B",
")  c #19BB1F",
"_  c #158623",
"`  c #158C20",
"'  c #169323",
"]  c #179D22",
"[  c #189C26",
"{  c #18962B",
"}  c #199030",
"|  c #1B9B33",
" . c #1C9F38",
".. c #17A120",
"X. c #18A422",
"o. c #19AB25",
"O. c #1AA62D",
"+. c #1BA92F",
"@. c #1AB127",
"#. c #1AB229",
"$. c #1CBB2B",
"%. c #1BA530",
"&. c #1CAB32",
"*. c #1DA239",
"=. c #1DA838",
"-. c #1DB433",
";. c #1EBC34",
":. c #1FBC38",
">. c #20BD3B",
",. c #1CC129",
"<. c #1FC336",
"1. c #1FCB34",
"2. c #20CB36",
"3. c #20C43B",
"4. c #21CD3A",
"5. c #20D337",
"6. c #21D837",
"7. c #22D33C",
"8. c #22CE40",
"9. c #22D040",
"0. c #24DA41",
/* pixels */
"- 3 e q i i i 3 3 q q @ P 5 3 a 2 : - - : < R Y o.e d j v q 0 3 3 q q @ P r < k k < r N @ e q q q q q @ A 0 < k 3 < - $ : < R J ",
"@ q i 3 O O : i n - q @ K J $ < i < l v q t M k q - G 4.:.] P 2 l : 3 - K J $ : > - N L - 3 - b n - q - L N @ > i : l v q e M k ",
"3 k X X - - X $ R R : < s a < : e T #.-.X.N s R M Y O.R $.-.$.T Q T : < d i 3 @ @ 2 a d < : T Q R T : < d a < : e R #.-.X.N t ~ ",
"< : : @ O @ @ < M J l P H J x O.g &.C 6 s k N +.t I 5.O.G - E Q N P l P H J x &.&.z J H P l P N N P l P H J b %.g O.C 6 d k N &.",
"O i k - : @ $   x P k a [ Y z Y P t k b <.&.U c -   @ < 1   2 i x P k a { I k ` E k Y { a k P x x P k k [ Y k U P s k b ;.&.P l ",
"3 q q q i q O - K v C ] 1.s @ i T k o.<.X.' _ N < < 1 N A A t q K v C ] 2.s : q q - s 1.] C v T T v C ] 1.s @ i T k o.<.X.] _ N ",
": 3 2 i : : - - b -.1.5.5.~ T e z P S   w w - e $ l R H d s < e N -.1.5.5.~ T < 5 T ~ 1.5.1.-.b b -.2.5.1.~ T s z P S   w w - e ",
"- - - : e - - : N Y k l S ;.^ P P l b } =.X.c s < J d $ @ i - q N Y k l S ;.^ b l ^ ;.Y l k Y J b E a l S ;.^ P S l x { &.O.c d ",
"< < @ @ < < R N < < t   x 2 < Z @.e B D P j e q 1 < X - : < R N < 1 t   b 2 2 l e < @   $ < T m < < t   b 2 < Z o.e V D Y s e r ",
"i < l v 3 e b l v - q : T P @ - 2 : v 4.:.W I < e < l v q w b l v - q - T N @ > e : l v q t b l v - q - T N @ > 2 : v 4.:.W J < ",
"e R @.-.X.N s W ~ T : < s a 2 @ z Y O.R -.-.) T e R $.-.X.N s W Q T : 1 s a < : e R #.-.X.N s ~ Q T : 1 s a 2 @ l I +.R -.-.) T ",
"5 O.C 6 d k J +.A J x J H J x O.d I 1.o.G - ' R r +.V 6 s k N +.A J x J H J b %.f &.C 6 d k N +.A P l J H J x %.s Y 4.o.G - ' Q ",
"A s k x ;.&.Y k x P k k { Y k U 5   @ < 1   2 a b s k b <.&.U l x P k k { Y k U P s k b ;.&.Y k z P l a { Y k U 5   @ < 1   2 a ",
"R k o.<.X.' _ J K v C ] 4.d - e 3 < 5 N A A e t T k o.<.X.' _ J K v C [ 1.s - i T k o.<.X.' _ N I v C ] 4.d - e 3 2 1 N A N e < ",
"x P S   w w @ i z -.<.5.1.~ T 2 @ l Q K d e : i b P S   0 q - i z -.1.5.1.o.T e z J A   u q O i x &.1.5.1.~ T 2 O l Q T i s 1 e ",
"Y k b { =.o.c s J Y c P [ <.^ M q N z @ - B > a P l P =.:.@.l d N Y k v P -.! I A k A | =.#.m a N ] v l Y ;.( b h N t   > i - q ",
"@.q V D Y s q d M a M } | X.c V 1.U t z v $.4.W x l @.:.=.U l N q < q k g i e $.0.N d S Y <.9.^ e ~ X.M : u R ~ o.w s j l q q : ",
"2 : v 4.:.W J t z J A   i e - q C M q R s i S $.i @ q 0   A P z w I ..<.4.G : < Z N q L e i S ,.b   D 7.9.&.L l : : G 4.3.] K 2 ",
"x Y O.R ;.-.) R R k o.>.X.' _ J 2 q i k J t : k J _ ] ~ <.o.k T E ) -.;.R O.Y x 3 3 i l I t - n V < m U *.1.7.Y k Y O.R ;.-.) T ",
"e I 5.o.G - ` Q N s k x ;.&.Y l i L J k e   O q c U &.>.x k s P ~ ' - G o.4.I e i R J k q   X q i b J 2 - 0 ;.8.i I 4.o.G - ` Q ",
":   @ < 1   2 a 4 +.C 6 d k N +.P R R L z i - A &.N k d 6 C +.4 a 2   1 < @   : J R R L z i - A q - @ < d 1   f <   @ < 1   2 a ",
"3 < 5 N A N e 5 e R @.>.X.m s W z : < d K l 3 5 E s N X.>.o.R e 2 e M J N 5 < q z : : d K l q : : r T N 3 e M N q < 5 N A A t < ",
"- l Q K i s < e a : k v q e M a x x q   O k i q l M e q n k : a e 2 s s K R l $ z x e   O k i < b I x x e < s d : l R K i s < e ",
"3 N s @ O i - q 3 : - > : : R N   d R I x e q q N R < : : - < 3 q @ i O : d m 3   s T T x e q e e : : - 2 - i   3 N s O : i - q ",
"- $ e : - - e - O $ i : : O e 3 - < e d 3 O O $ 3 $ : : e : - $ @ @ : : e $ - : @ X i t < $ q : O < e q : @ @ @ : @ - : e : : O ",
"q q e X : - $ O q q q X : - $ X @ q e 3 a q @ @ $ a l q   - - O : a l q   - @ X q q q   : - $ @ $ e e q a q @ @ - a l q   $ - O ",
"< a : < < : @ 3 < a < < < : $ < q a O O < - - $ e 3 < q - - - < e 3 < 3 - - - : : a < < < : @ < q a X O < - - - e 3 < 3 - - - : ",
"X - : $ a e X - O - : $ k q O - < : - - e : $ $ - < : q : : i e - 2 : q : : i e O - : - a e O $ < : - - e : $ $ - 2 : q : : i e ",
"@ - - - k : O @ O - - - k : O @ O - - - k < O @ @ @ @ X O i q < O @ @ X O i q < O - - - k : O O O - - - a 3 O O O @ O X X i e < ",
"O - - : : - O @ O - - : : - O @ @ - - : : - @ @ @ O @ O - < - a O @ @ @ - < - a O ; - : : - @ @ @ - - : : - @ @ @ @ $ @ - < - a ",
"@ O @ @ O O @ @ @ O @ $ O O @ @ @ @ O @ O O @ @ @ O @ @ O X $ - @ @ @ @ O O $ - O O @ @ O O @ @ @ O @ @ O O @ @ @ @ @ @ @ X $ - ",
"@ O @ @ @ @ @ @ @ @ @ O @ @ @ @ @ O @ @ @ @ @ O @ @ @ @ @ @ $ : $ O O @ @ @ @ : @ @ @ @ @ @ @ O @ @ @ @ @ O @ @ O @ @ O @ @ @ : ",
"@ @ @ @ O @ O @ O @ @ @ @ @ @ O @ O @ @ $ @ @ @ @ @ @ $ @ O @ O @ @ - $ O @ @ O @ @ @ O @ @ @ @ O @ @ @ $ @ @ @ @ O $ @ @ @ @ O ",
"@ @     $ @ @ @ @ @ O O $ O @ @ # @ @     X @ @ @ @     @ @ @ @ O @     @ @ @ @ O @ O O $ O @ @ # @ O     O @ O @ @     @ @ @ @ ",
"$   z d   $ @ @ # O < -   $ @ @ @ O @ s x < @ @ @   z d   @ @ @ $   z d   @ @ @ # O : :   @ $ @ @ # @ s x < O @ $   z d   @ @ @ ",
"@ : N 3 @ $ O @ O 3 i L d   @ # @   i N i : O : @ < N 1 @ - @ @ @ < N < @ $ @ @ O 3 a K d   @ # @   i N i : O : - : N 2 @ $ @ O ",
"- : 3       $ * 9 : o 2 l # O = F , u - O O - - @ : 3       @ @ $ : 3     . @ * 9 : + 1 l ; O = F , u - O O - : @ < <       @ @ ",
"1 - - - i d X % 7 1 . O @ $ @ & 8 : < X X - q N r - - - i d   - < - - - i d X % 7 1 . O O $ @ & 8 : < X X @ q n 5 - - - i z X @ ",
"x X < : q M 1 O p Q d   - @ + - 2 - - q 3   @ z x O : : 3 N < < x O : : 3 N 1 O p Q d   $ @ + - 2 - - q q   @ z x O < : 2 b 1 X ",
"q < : -   X 2 q ; : d @ O @ @ @ y : - a 3 r X - q : 3 : O O < e q < < -   X 2 q ; : d @ O @ @ @ y : - a 3 r X - e : < : @ O < t ",
"q q q - A r < a l P T P 2 - - @ @ @ - 1 P R I l 2 < - > - < R N 3 q q - A 0 < a l I R P 1 - - @ @ - : 1 K R I l 3 < - - : < R A ",
"n - q $ L N - : x x 2 2 : < - : : : < : 2 < x x e : l v q e b l n - 3 - L N - > z z 2 < : < : : : - < : < < z x e : l c 3 e M l ",
"Q T : < s a < - - w P ` C @ : : : : @ C Y P w < e R #.-.X.N s W Q R : < d a < - - e P ` C $ : - - : @ C Y U w < e R o.>.X.N e X.",
"N J x J H J x O.R X.6.7.1.:.s - - s ;.1.6.6.X.I r &.C 6 s k N +.N J x P H J x %.R X.6.5.1.;.s - - s ;.1.5.6.o.K t +.C 6 i k N &.",
"b P k a { Y k U ( ;.U c a U z : - B U k c U -./ N s k b ;.&.Y k x P k k { I l U ( :.U l k U z : : z U k l U ;./ A s k x ;.=.Y l ",
"L v C ] 4.d @ i T 2 < k I - - < < - - P l < 2 R R k o.<.X.' _ J J m C ] 1.d @ i T 2 < l I - - < 1 - - P l < 2 R R k o.<.X.[ _ m ",
"b &.1.5.1.o.T q J &.0.#.: > < : < < > : #.0.%.L x P A   w q @ i x #.3.5.1.X.T q J &.0.@.: > < : : < > : #.0.O.L x P S   w 0 @ e ",
"N ] c l Y ;./ N 8.1. .U P w q < < q w I U *.<.0.P a P | &.#.n d N ] n l U <./ N 1.8. .U P w q < < q w P U  .1.0.I k J { =.#.N k ",
"q ..X.M : u R ~ #.w q f c w t : < q w v f q w -.0.A d S E ,.9.~ i ] X.M : u R ~ #.w q f v e q < < q w c f q w -.0.m d S Y <.4./ ",
"b   D 6.9.&.L l - < G 9.<.] K < < K W :.8.G : < M M q T e i S ,.b   D 7.7.+.L l - : G 7.:.W K < < I W >.7.G : < Z A q L e i S $.",
"x < m U *.1.0.Y k Y O.R -.-.) I I $.-.$.R &.Y z q 2 i l P t - n x < v U *.4.0.Y k Y O.R -.-.) I I ) -.-.R O.Y x 2 2 i l K t : l ",
"e b P < - 0 -.8.i Y 1.o.G - ' Q Q ' - G o.1.I e i T J k e   X q e M J 2 - 0 -.4.i I 7.o.G - ' ~ Q ' : G o.4.I e i L K k q   X t ",
"2 : @ < d 1   f <   @ < 1   0 i i 2   1 < @   : J R R T z i - A t : @ < d 1   f >   @ 2 1   2 i i 2   1 < @   < J R R L z i - A ",
"< 5 T A 3 e M N q < 5 N J b t < < t A A N 5 < q z : < i K l q : - 3 T A 3 e A N q < 1 N A n e < < e N N N 5 < q z : < d K l q : ",
"b L x l e < e d : l R K d s < i i < t i K Q l $ z x e   X a a < b T x l q < s d : l Q K d s < i i < s d K Q l @ z x q   X a i 3 ",
"e > : - q < a   3 N s @ O i - q q - a X X s N 3   s T T x i q e e : : - q < i   2 m d @ O i @ e q - i X X t N 3   s T L M e q e ",
"O < e q e i i < - - e : - - e @ @ 3 q q <   @ : ;   < t i : - $ @ < q e e i i 3 - $ e : - - e @ @ 3 e q <   @ : -   < t i : $ $ ",
"$ q i 3 @ O : e q q e X : - @ O $ q e q k q O O - k l <   - - X @ q i 3 O O : e q q e X : $ $ @ $ q e q a q O O - a l <   - - O ",
"3 k X X : - O X : a : < < : @ 3 q k X O < ; - - e 3 3 q - - - : q k X X - - O X : a < < < < @ < q a X O < - - - i 3 < q : - - : ",
": < - $ O O $ : X - : $ a e X - < : - - e : $ @ - 3 - q : : i e < : : @ O @ $ - X - : $ k q X - < : - - e : $ # - < : q : : i e ",
"O i l - : @ @ @ @ - - - k < O O O - - - a < O O O @ O O X i q < X i l - : @ @ @ O - - - k : O O O - - - k < O O O @ O O X i e < ",
"3 q q q i q O @ O - - : : - @ @ @ - - : : - @ @ @ @ @ O - < - a 3 q q q i q @ O @ ; - : : - @ @ @ - - : : - @ @ @ @ @ @ - < - a ",
"- 3 3 i : - - @ @ O O $ O O @ @ @ O @ $ O @ @ @ @ @ @ @ @ O @ - : 3 3 i : - - @ @ O @ @ O O @ @ @ O @ @ O O @ @ @ @ @ O O O $ - ",
"- - - - e : - @ @ @ @ @ @ @ @ O @ O @ O @ @ @ O @ @ O @ O @ @ : - - - - e : - @ @ O @ @ @ @ @ O @ @ @ @ @ @ O @ @ O @ @ @ @ O : "
};
