/* XPM */
static char *result[] = {
/* columns rows colors chars-per-pixel */
"64 64 250 2 ",
"   c #010301",
".  c #0A0001",
"X  c #060707",
"o  c #180100",
"O  c #010514",
"+  c #360307",
"@  c #2F0A0A",
"#  c #353233",
"$  c #4A0107",
"%  c #50100D",
"&  c #670006",
"*  c #7A0205",
"=  c #6C0914",
"-  c #762E09",
";  c #450F2E",
":  c #7D0730",
">  c #4B3232",
",  c #6D322E",
"<  c #6B4613",
"1  c #4D4736",
"2  c #6C4836",
"3  c #020449",
"4  c #040156",
"5  c #100758",
"6  c #030267",
"7  c #040178",
"8  c #101178",
"9  c #2A2160",
"0  c #50044E",
"q  c #690451",
"w  c #743C4B",
"e  c #6B106F",
"r  c #522962",
"t  c #3E5050",
"y  c #474947",
"u  c #575858",
"i  c #4C4E53",
"p  c #735450",
"a  c #4F4E71",
"s  c #6D5166",
"d  c #666866",
"f  c #777978",
"g  c #6F6D6D",
"h  c #5F6C60",
"j  c #8C0101",
"k  c #830206",
"l  c #940005",
"z  c #900816",
"x  c #BB0308",
"c  c #B70219",
"v  c #A60113",
"b  c #932E0F",
"n  c #A73907",
"m  c #8C3136",
"M  c #A33325",
"N  c #A8142B",
"B  c #CD0310",
"V  c #F80305",
"C  c #E70615",
"Z  c #FB0217",
"A  c #F30F14",
"S  c #F00A24",
"D  c #FC292A",
"F  c #8E512C",
"G  c #AA5937",
"H  c #996126",
"J  c #F2423C",
"K  c #91204F",
"L  c #91534F",
"P  c #A75D53",
"I  c #A75E4E",
"U  c #946653",
"Y  c #AE6F4F",
"T  c #927571",
"R  c #BA766A",
"E  c #A7706E",
"W  c #954464",
"Q  c #C57A59",
"!  c #C66D45",
"~  c #C77863",
"^  c #C47C7D",
"/  c #E75460",
"(  c #7B827B",
")  c #8E8A73",
"_  c #AE8973",
"`  c #9CA07F",
"'  c #C78A7A",
"]  c #D39273",
"[  c #F5AB74",
"{  c #DF8C62",
"}  c #050389",
"|  c #040198",
" . c #0E168E",
".. c #2A0188",
"X. c #360C94",
"o. c #0A2C97",
"O. c #2E2F94",
"+. c #0400A8",
"@. c #0502B3",
"#. c #160DA6",
"$. c #3719B2",
"%. c #0C27A9",
"&. c #323AA6",
"*. c #4B328D",
"=. c #4930B0",
"-. c #480095",
";. c #3C489C",
":. c #364EB2",
">. c #124A95",
",. c #4F5196",
"<. c #6D6E91",
"1. c #4746A3",
"2. c #5559AB",
"3. c #5A5BBB",
"4. c #4C4BAF",
"5. c #6555AD",
"6. c #5A6AB8",
"7. c #4B69A6",
"8. c #6765B5",
"9. c #7664B4",
"0. c #7377A9",
"q. c #5655CB",
"w. c #6657CB",
"e. c #5A68C7",
"r. c #6A67C8",
"t. c #746AC5",
"y. c #6A73C9",
"u. c #7475CB",
"i. c #6767D4",
"p. c #6C74D7",
"a. c #797AD9",
"s. c #796CD4",
"d. c #7779E9",
"f. c #8F7090",
"g. c #B4778B",
"h. c #916FB1",
"j. c #AC78AD",
"k. c #955FAB",
"l. c #8B73CA",
"z. c #837AF1",
"x. c #79868D",
"c. c #7A86AD",
"v. c #7887D2",
"b. c #7A86EE",
"n. c #888A8A",
"m. c #8D908D",
"M. c #8E9496",
"N. c #9B9B9B",
"B. c #949694",
"V. c #93918D",
"C. c #AF9490",
"Z. c #9DA692",
"A. c #9091B1",
"S. c #A991A6",
"D. c #97A7AC",
"F. c #A3A4A4",
"G. c #ABABAB",
"H. c #A6A9A7",
"J. c #B2A8A5",
"K. c #A5A7B8",
"L. c #AAB2B1",
"P. c #BBBCBC",
"I. c #B4B5B7",
"U. c #B2B1AF",
"Y. c #B3AB9E",
"T. c #CF938D",
"R. c #EC9987",
"E. c #F39D9A",
"W. c #DBA696",
"Q. c #D0A691",
"!. c #EBA78A",
"~. c #F9AB8B",
"^. c #FBB589",
"/. c #FCAE99",
"(. c #E9B697",
"). c #FDBB9B",
"_. c #FAB698",
"`. c #E7AD8E",
"'. c #CAB3B2",
"]. c #E9B7A5",
"[. c #FCB6A5",
"{. c #FEBBB6",
"}. c #FFAAA9",
"|. c #CC93B6",
" X c #BEC8BF",
".X c #F3C499",
"XX c #CFCAB7",
"oX c #FAC4AA",
"OX c #F7CEB7",
"+X c #8888D7",
"@X c #9192CC",
"#X c #AC9ACB",
"$X c #96A4DA",
"%X c #A6AAC7",
"&X c #B3B8C9",
"*X c #A6A8DB",
"=X c #B9BAD8",
"-X c #B0AECE",
";X c #8A8AEA",
":X c #978CE8",
">X c #888CF4",
",X c #8A95F5",
"<X c #9596FB",
"1X c #9193F1",
"2X c #B8B6E9",
"3X c #AAADE9",
"4X c #A18AF6",
"5X c #CC9AC5",
"6X c #D2B6CC",
"7X c #CAB7EA",
"8X c #B9C1D7",
"9X c #BEC9C3",
"0X c #BAC8E7",
"qX c #BDC4FF",
"wX c #C3C4C3",
"eX c #CBCCCC",
"rX c #C5C9C9",
"tX c #C7C7D9",
"yX c #D3CCD3",
"uX c #CDD3D5",
"iX c #D7D9D7",
"pX c #D6D2C8",
"aX c #ECD4CD",
"sX c #DBE5D9",
"dX c #D4EBD3",
"fX c #E5E6DA",
"gX c #F7E9CF",
"hX c #C8C6E5",
"jX c #D7DAE6",
"kX c #C7C8FF",
"lX c #D0D2FF",
"zX c #EEDEE3",
"xX c #DDE4E6",
"cX c #DAE6FA",
"vX c #DDF1E8",
"bX c #E4E5E4",
"nX c #E7EBEA",
"mX c #F7E9E7",
"MX c #E8F5EA",
"NX c #FCFDEC",
"BX c #F6F9E7",
"VX c #E8E8F9",
"CX c #FAEAF8",
"ZX c #EBF9FA",
"AX c #F5FCF3",
"SX c #FDFCF4",
"DX c #F4FDFC",
"FX c #FDFDFD",
"GX c #F7F4F5",
"HX c None",
/* pixels */
"HXHXHXHXHXHXHXHXHXHXHXHXHXHXHXHXHXHXHXHXHXHXHXHXHXHXHXHXHXHXHXHXHXHXHXHXHXHXHXHXHXHXHXHXHXHXHXHXHXHXHXHXHXHXHXHXHXHXHXHXHXHXHXHX",
"HXHXHXHXHXHXHXHXHXHXHXHXHXHXHXHXHXHXHXHXHXHXHXHXHXHXHXHXHXHXHXHXHXHXHXHXHXHXHXHXHXHXHXHXHXHXHXHXHXHXHXHXHXHXHXHXHXHXHXHXHXHXHXHX",
"HXHXHXHXHXHXHXHXHXHXHXHXHXHXHXHXHXHXHXHXHXHXHXHXHXHXHXHXHXHXHXHXHXHXHXHXHXHXHXHXHXHXHXHXHXHXHXHXHXHXHXHXHXHXHXHXHXHXHXHXHXHXHXHX",
"HXHXHXHXHXHXHXHXHXHXHXHXHXHXHXHXHXHXHXHXHXHXHXHXHXHXHXHXHXHXHXHXHXHXHXHXHXHXHXHXHXHXHXHXHXHXHXHXHXHXHXHXHXHXHXHXHXHXHXHXHXHXHXHX",
"HXHXHXHXHXHXHXHXHXHXHXHXHXHXHXHXHXHXHXHXHXHXHXHXHXHXHXHXHXHXHXHXHXHXHXHXHXHXHXHXHXHXHXHXHXHXHXHXHXHXHXHXHXHXHXHXHXHXHXHXHXHXHXHX",
"HXHXHXHXHXHXHXHXHXHXHXHXHXHXHXHXHXHXHXHXHXHXHXHXHXHXHXHXHXHXHXHXHXHXHXHXHXHXHXHXHXHXHXHXHXHXHXHXHXHXHXHXHXHXHXHXHXHXHXHXHXHXHXHX",
"HXHXHXHXHXHXHXHXHXHXHXHXHXHXHXHXHXHXHXHXHXHXHXHXHXHXHXHXHXHXHXHXHXHXHXHXHXHXHXHXHXHXHXHXHXHXHXHXHXHXHXHXHXHXHXHXHXHXHXHXHXHXHXHX",
"HXHXHXHXHXHXHXHXHXHXHXHXHXHXHXHXHXHXHXHXHXHXHXHXHXHXHXHXhXc.0.@X0.A.HXHXHXHXHXHXHXHXHXHXHXHXHXHXHXHXHXHXHXHXHXHXHXHXHXHXHXHXHXHX",
"HXHXHXHXHXHXHXHXHXHXHXHXHXHXHXHXHXHXHXHXHXHXHXHXHXmX0X8Xl.#.q.q.4.;.*XhXtXHXHXNXHXHXHXHXHXHXHXHXHXHXHXHXHXHXHXHXHXHXHXHXHXHXHXHX",
"HXHXHXHXHXHXHXHXHXHXHXHXHXHXHXHXHXHXHXHXVXHXHXHXHX=X|  .w.v.@X3X:Xu.&.7 9.HXHXZXHXVXHXHXHXHXHXHXHXHXHXHXHXHXHXHXHXHXHXHXHXHXHXHX",
"HXHXHXHXHXHXHXHXHXHXHXHXHXHXHXHXHXHXhX8.:XCXHXHXD.O.1.6.d.;X,X,X<X:Xs.&.c.HXHXHX*Xu.&XHXHXHXHXHXHXHXHXHXHXHXHXHXHXHXHXHXHXHXHXHX",
"HXHXHXHXHXHXHXHXHXHXHXHXHXHXHXHXHXHXqXw.#X7X7XkXu.+.2.r.z.<X,X;X<X:Xv.4.e.2XhX7X#Xw.3XHXHXHXHXHXHXHXHXHXHXHXHXHXHXHXHXHXHXHXHXHX",
"HXHXHXHXHXHXHXHXHXHXHXHXHXHXHXHXHXHX0X9.}.5X4X>X3.&.3.3.l.,X,X1X;X:Xu.2.q.d.+X5XoXl.2XHXHXHXHXHXHXHXHXHXHXHXHXHXHXHXHXHXHXHXHXHX",
"HXHXHXHXHXHXHXHXHXHXHXHXHXHXHXHXHXHX=Xh./.}.6X:Xw.4.i.9.;X,X<X;X$X;Xp.r.p.b.-X^.[ k.3XHXHXHXHXHXHXHXHXHXHXHXHXHXHXHXHXHXHXHXHXHX",
"HXHXHXHXHXHXHXHXHXHXHXHXHXHXHXHXHXHX2X<.!.^.].'.A.e.6.t.v.<X>X4X>X<Xp.q.l.'.oXoX/.h.3XHXHXHXHXHXHXHXHXHXHXHXHXHXHXHXHXHXHXHXHXHX",
"HXHXHXHXHXHXHXHXHXHXHXHXHXHXHXHXHXHXhX9.oX}.!.E.h.e.e.9.d.v.,X1X;X+Xp.i.l.T./.[.^.h.*XHXHXHXHXHXHXHXHXHXHXHXHXHXHXHXHXHXHXHXHXHX",
"HXHXHXHXHXHXHXHXHXHXHXHXHXHXHXHXHXHXqXv.[ ^.|.>.7.y.i.s.r.r.1X:Xv.8.i.r.i.$.S.^.(.j.7XHXHXNXHXHXHXHXHXHXHXHXHXHXHXHXHXHXHXHXHXHX",
"HXHXHXHXHXHXHXHXHXHXHXHXHXHXHXHXHXHXHXnXh.t.5.&.p.>Xz.z.r.r.1X<X>X8.a.d.a.=.2.3.9.iXHXHXHXHXHXHXHXHXHXHXHXHXHXHXHXHXHXHXHXHXHXHX",
"HXHXHXHXHXHXHXHXHXHXHXHXHXHXHXHXHXHXVX%X=.%.O.4.2XlXlXlX2X9.a.b.v.z.kXcX0Xe.%.o.%.*XHXHXHXHXHXHXHXHXHXHXHXHXHXHXHXHXHXHXHXHXHXHX",
"HXHXHXHXHXHXHXHXHXHXHXHXHXHXHXHXHXHX2X} 4.>.8.+XnXFXNXDXlXz.i.e.y.1XVXNXBX*X3.:.:.} @XHXHXHXHXHXHXHXHXHXHXHXHXHXHXHXHXHXHXHXHXHX",
"HXHXHXHXHXHXHXHXHXHXHXHXHXHXHXHXHXHX=X| 4. .@XZXDXFXBXFXkX>Xi.8.p.<XZXSXNXZX%X#.4.} %XHXHXHXHXHXHXHXHXHXHXHXHXHXHXHXHXHXHXHXHXHX",
"HXHXHXHXHXHXHXHXHXHXHXHXHXHXHXHXHXHXtX+.*.@.$XMXAXGXCXI.<.,.8.u.8.2.M.XXBXDX8X+.5.} -XHXHXHXHXHXHXHXHXHXHXHXHXHXHXHXHXHXHXHXHXHX",
"HXHXHXHXHXHXHXHXHXHXHXHXHXHXHXHXHXHX8X+.1.+.$XFXNXFXVXy O 9 u.d.5.O X F.FXDX%X@.1.| *XHXNXHXHXHXHXHXHXHXHXHXHXHXHXHXHXHXHXHXHXHX",
"HXHXHXHXHXHXHXHXHXHXHXHXHXHXHXHXHXHX7X+.:.o.A.CXNXFXbXh X i +X<Xl.    -XFXFX-X@.:.+.%XHXHXHXHXHXHXHXHXHXHXHXHXHXHXHXHXHXHXHXHXHX",
"HXHXHXHXHXHXHXHXHXHXHXHXHXHXHXHXHXHX=X} =.| F.SXFXDXvXd   g cXVXtX    U.FXSX8X| 1.} @XHXHXHXHXHXHXHXHXHXHXHXHXHXHXHXHXHXHXHXHXHX",
"HXHXHXHXHXHXHXHXHXHXHXHXHXHXHXHXHXHXxX#X1.o.0.lXcXFXNXy   ( DXFXdX  . D.DX9XM.$.1.+XxXHXHXHXHXHXHXHXHXHXHXHXHXHXHXHXHXHXHXHXHXHX",
"HXHXHXHXHXHXHXHXHXHXHXHXHXHXHXHXHXHXHXCX0.O.=.4.cXZXfX) X ) fXBX6X> o XXSX9...&.4.nXHXHXHXHXHXHXHXHXHXHXHXHXHXHXHXHXHXHXHXHXHXHX",
"HXHXHXHXHXHXHXHXHXHXHXHXHXHXHXHXHXHXHXVX,.| k.!.GXDXAXVXpX] g t E Q.aXDXGX{.j.+.8 bXHXBXHXHXHXHXHXHXHXHXHXHXHXHXHXHXHXHXHXHXHXHX",
"HXHXHXHXHXHXHXHXHXHXHXHXHXHXHXHXHXHXVXD.9 @.h.^.aXaXOXmXaX[ . O 2 [.gXgXOXoXS.%.8 A.jXHXHXHXHXHXHXHXHXHXHXHXHXHXHXHXHXHXHXHXHXHX",
"HXHXHXHXHXHXHXHXHXHXHXHXHXHXHXHXHXHXL.3  .X.T ].!.^.[ [.}.R.p 2 ' _.[ `.[.`.g.X.O.5 A.HXHXHXHXHXHXHXHXHXHXHXHXHXHXHXHXHXHXHXHXHX",
"HXHXHXHXHXHXHXHXHXHXHXHXHXHXHXHXHXHX2X7 o.q n Y [ _.^.~./.].].].).^.^..XR.Q b K  .6 %XHXHXHXHXHXHXHXHXHXHXHXHXHXHXHXHXHXHXHXHXHX",
"HXHXHXHXHXHXHXHXHXHXHXHXHXHXHXHXHXHX6X6 6 P.6Xj ~ ' ] _.oXW.T U ' [ _.W._ * Q.'.7 4 K.HXHXHXHXHXHXHXHXHXHXHXHXHXHXHXHXHXHXHXHXHX",
"HXHXHXHXHXHXHXHXHXHXHXHXHXHXHXHXBXHX%X6 A.VXSXC.U < F [ ].]     L R./.~ 2 C.mXGXK.6 A.HXHXHXHXHXHXHXHXHXHXHXHXHXHXHXHXHXHXHXHXHX",
"HXHXHXHXHXHXHXHXHXHXHXHXHXHXHXHXHXHX&X<.NXDXDXFXf.. % Y Y Y @ X w Y U - E nXDXSXAX@XA.HXHXHXHXHXHXHXHXHXHXHXHXHXHXHXHXHXHXHXHXHX",
"HXHXHXHXHXHXHXHXHXHXHXHXHXHXHXHXHXHXmXVXAXFXCXC.I * j % % , Y Y L % O U.bXQ.aXFXSXCXbXHXHXHXHXHXHXHXHXHXHXHXHXHXHXHXHXHXHXHXHXHX",
"HXHXHXHXHXHXHXHXHXHXHXHXHXHXHXHXHXHXHXHXaXXXW.j j K e 2 , m < F < < - K.rX* T.aXpXFXSXHXHXHXHXHXHXHXHXHXHXHXHXHXHXHXHXHXHXHXHXHX",
"HXHXHXHXHXHXHXHXHXHXHXHXHXHXHXHXHXmXHXsXY n Y U M e *.P { E > > L R R W 5 U I n M aXMXdXHXHXHXbXHXHXHXbXHXHXHXHXHXHXHXHXHXHXHXHX",
"HXHXHXHXHXHXHXHXiXV.N.( u g H.Y.g.] _ R l j _ HX0.e P I ] _.^.!.`.R.! G _ gXQ.* j Y ' ] ' F.J.g h <.N.V.pXHXHXHXHXHXHXHXHXHXHXHX",
"HXHXHXHXHXHXwX9XF.J.pXD.u . eX'.* l j F 6XwXvXHXc.0 Q ] (..X]._._.[.W.~ _ FXfXXXaXL z l k Y.iXt > C.eXF.F.P.9XbXHXHXHXHXHXHXHXHX",
"HXHXHXHXHXeXn.N.I.yXDXMXF.h sXfXL E f.Q.HXHXHXHXx.0 Y oX/._.}./.^.^.{.{ C.HXHXHXHX'.E C.m pXMXg Z.fXFXjXI.K.n.XXHXHXHXHXHXHXHXHX",
"HXHXHXHXI.B.U.GXFXAXAXFXiXN.nXxXG.HXHXHXHXHXHXHX0.e R ^./.[.(./.`.(.).] _ HXHXHXHXHXHXHXP.dXMXV.uXFXGXGXFXMX6XM.G.HXHXHXHXHXHXHX",
"HXHXHXHXeXf d f iXGXFXFXnXn.9XG.f fXHXHXHXHXHXHX<.; Y Q E.{..X^..X).] Y C.HXHXHXHXHXHXHXT V.eXm.sXDXFXFXjXm.h f &XHXHXHXHXHXHXHX",
"HXHXHXHXP.n.F.g H.BXnXbXiXB.x.n.G.HXHXHXHXHXHXHX8Xf.w w ^ !.!.W.R.[ Q , T HXHXHXHXHXHXHXP.m.f.n.eXbXbXMXwXu F.M.J.HXHXHXHXHXHXHX",
"HXHXHXHXN.F.FXP.H.H.H.U.G.m.y I.HXHXHXHXHXHXHXHXHXjX8  .s H L Y Y I P s 0.HXHXHXHXHXHXHXHXrXy n.F.L.G.G.F.P.MXL.( HXHXHXHXHXHXHX",
"HXHXHXHXHXrXg i i h # F.F.# eXHXHXHXHXHXHXHXHXHXHXHXdX7...-.4 6 8 e ..K.dXHXHXHXHXHXHXHXHXHXiXy N.G.y i u i u '.HXHXHXHXHXHXHXHX",
"HXHXHXHXHXHXG.'.f # &XN.m.I.HXHXHXHXHXHXHXHXHXHXHXHXHX0.} <.I.8XA.5 6 &XHXHXHXHXHXHXHXHXHXHXHXeXm.M.wXu d P.J.bXHXHXHXHXHXHXHXHX",
"HXHXHXHXHXHXHXHXrXB.bXU.N.HXHXHXHXHXHXHXHXHXHXHXHXHXHX<.3 x.HXHXfX  3 L.HXHXHXHXHXHXHXHXHXHXHXHXP.V.nXF.P.HXHXHXHXHXHXHXHXHXHXHX",
"HXHXHXHXHXHXHXHXHXiXd wXHXHXHXHXHXHXHXHXHXHXHXHXHXHXHX<.3 0.HXHXXXX 5 '.HXHXHXHXHXHXHXHXHXHXHXHXHXuXu yXHXHXHXHXHXHXHXHXHXHXHXHX",
"HXHXHXHXHXHXHXHXHXHXuXHXHXHXHXHXHXHXHXHXHXHXHXHXHXxXA.8 A.xXHXHXHXXXa <.&XHXHXHXHXHXHXHXHXHXHXHXHXHXyXHXHXHXHXHXHXHXHXHXHXHXHXHX",
"HXHXHXHXHXHXHXHXHXHXHXHXHXHXHXHXHXHXHXHXHXHXHXHXHXrX3 5 hXHXHXHXHXHXf X a HXHXHXHXHXHXHXHXHXHXHXHXHXHXHXHXHXHXHXHXHXHXHXHXHXHXHX",
"HXHXHXHXHXHXHXHXHXHXHXHXHXHXHXHXHXHXHXHXHXHXHXHXHX7X7 7 rXHXHXHXHXHX<.X <.VXHXHXHXHXHXHXHXHXHXHXHXHXHXHXHXHXHXHXHXHXHXHXHXHXHXHX",
"HXHXHXHXHXHXHXHXHXHXHXHXHXHXHXHXHXHXHXHXHXHXHXHXK.} 8 tXHXHXHXHXHXHXHXM.i HXHXHXHXHXHXHXHXHXHXHXHXHXHXHXHXHXHXHXHXHXHXHXHXHXHXHX",
"HXHXHXHXHXHXHXHXHXHXHXHXHXHXHXHXHXHXHXHXHXfXbXHX9XM.P.HXHXHXHXHXHXHXHXuXf nXHXbXHXHXHXHXHXHXHXHXHXHXHXHXHXHXHXHXHXHXHXHXHXHXHXHX",
"HXHXHXHXHXHXHXHXHXHXHXHXHXHXHXHXHXHXHXHXHXU.H.HXHXDXDXHXHXHXBXHXHXHXHXrXB.GX&XB.HXHXHXHXHXHXHXHXHXHXHXHXHXHXHXHXHXHXHXHXHXHXHXHX",
"HXHXHXHXHXHXHXHXHXHXHXHXHXHXHXHXHXHXHXHXHXP.n.I.L.L.eXD.sXHXHXHXHXHXN.1 d I.A.G.HXHXHXHXHXHXHXHXHXHXHXHXHXHXHXHXHXHXHXHXHXHXHXHX",
"HXHXHXHXHXHXHXHXHXHXHXHXHXHXHXHXHXHXHXHXtXuXuXiXjXbXdX) eXHXHXHXHXHXB.1 n.bXuXeXuXHXHXHXHXHXHXHXHXHXHXHXHXHXHXHXHXHXHXHXHXHXHXHX",
"HXHXHXHXHXHXHXHXHXHXHXHXHXHXHXHXHXHXHXyXW sXDXZXmXMXsXx.eXHXHXHXHXHXL.d M.vXFXnXf 9XHXHXHXHXHXHXHXHXHXHXHXHXHXHXHXHXHXHXHXHXHXHX",
"HXHXHXHXHXHXHXHXHXHXHXHXHXHXHXHXHXHX'.k k pXMXU.E : >    XHXHXHXHXHXT   y H.BXvXN * W.HXHXHXZXHXHXHXHXHXHXHXHXHXHXHXHXHXHXHXHXHX",
"HXHXHXHXHXHXHXHXHXHXHXHXHXHXHXHXHXaX/ C B _ _ Y ` U & + g '.HXHXnXV.# y f.U C.] B B J /.HXHXHXHXHXHXHXHXHXHXHXHXHXHXHXHXHXHXHXHX",
"HXHXHXHXHXHXHXHXHXHXHXHXHXHXHXBXOXD V A D B x v _ ` E ,   i HXHXuX  X d Z.z l B V D V V OXHXHXHXHXHXHXHXHXHXHXHXHXHXHXHXHXHXHXHX",
"HXHXHXHXHXHXHXHXHXHXHXHXHXHXBXoXV V V V Z Z C * & _ Z.p   x.HXHXuXo   u T m C S C C Z A Z oXHXHXHXHXHXHXHXHXHXHXHXHXHXHXHXHXHXHX",
"HXHXHXHXHXHXHXHXHXHXHXHXHXHX[./ V A Z A c c v % $ 1 p . F.HXHXHXHXiXu . 1 @ v v B C Z V V D }.HXHXHXHXHXHXHXHXHXHXHXHXHXHXHXHXHX",
"HXHXHXHXHXHXHXHXHXHXHXHXHXHXT.B c c c c = = & @ $ + > V.MXHXHXHXHXHXwXg . @ % = & v B x B x P NXHXHXHXHXHXHXHXHXHXHXHXHXHXHXHXHX",
"HXHXHXHXHXHXHXHXHXHXHXHXHXHX(   X X X   + $ & $ $ o u HXHXHXHXHXHXHXHXrXo $ + $ + X X . X   g MXHXHXHXHXHXHXHXHXHXHXHXHXHXHXHXHX"
};
