/* XPM */
static char *result[] = {
/* columns rows colors chars-per-pixel */
"64 64 254 2 ",
"   c #010201",
".  c #02020B",
"X  c #090505",
"o  c #150002",
"O  c #090B15",
"+  c #280603",
"@  c #360106",
"#  c #2F1307",
"$  c #0B0F36",
"%  c #30332E",
"&  c #201A36",
"*  c #560305",
"=  c #4E0813",
"-  c #680507",
";  c #71091C",
":  c #6F2E16",
">  c #490A2A",
",  c #4B2E33",
"<  c #603336",
"1  c #344C21",
"2  c #6B4939",
"3  c #55493B",
"4  c #00014B",
"5  c #050459",
"6  c #141D5E",
"7  c #342E48",
"8  c #040269",
"9  c #151A6B",
"0  c #010173",
"q  c #02027D",
"w  c #060779",
"e  c #15167A",
"r  c #231C79",
"t  c #1C2379",
"y  c #152C74",
"u  c #262678",
"i  c #2D326F",
"p  c #4B3C46",
"a  c #493978",
"s  c #553776",
"d  c #6D3872",
"f  c #47136A",
"g  c #36447B",
"h  c #3F4140",
"j  c #585648",
"k  c #555654",
"l  c #4F4C4B",
"z  c #665556",
"x  c #6E6657",
"c  c #575072",
"v  c #684E6D",
"b  c #686968",
"n  c #7A797A",
"m  c #706E6F",
"M  c #5F6A7B",
"N  c #840307",
"B  c #980405",
"V  c #920912",
"C  c #A40105",
"Z  c #B20611",
"A  c #8C1028",
"S  c #882C2D",
"D  c #AA3931",
"F  c #BC0C21",
"G  c #C20704",
"H  c #D8001A",
"J  c #D0061C",
"K  c #FB0009",
"L  c #F70419",
"P  c #EB0615",
"I  c #F90727",
"U  c #CA1D2C",
"Y  c #8F4D35",
"T  c #A75238",
"R  c #9F673A",
"E  c #AE6E34",
"W  c #A66B1D",
"Q  c #9F3D56",
"!  c #D8394F",
"~  c #905354",
"^  c #A8564D",
"/  c #986B59",
"(  c #B36E51",
")  c #874B6E",
"_  c #8F7071",
"`  c #B1756E",
"'  c #BB496A",
"]  c #C9785A",
"[  c #D0645A",
"{  c #D85A5B",
"}  c #6A8B71",
"|  c #8C8875",
" . c #A88677",
".. c #B48E73",
"X. c #CC925A",
"o. c #C5866C",
"O. c #CB9675",
"+. c #D5947C",
"@. c #E99077",
"#. c #F3B876",
"$. c #020082",
"%. c #02018B",
"&. c #070987",
"*. c #041687",
"=. c #1A1C84",
"-. c #050195",
";. c #140796",
":. c #18199A",
">. c #081B93",
",. c #281D91",
"<. c #1B2486",
"1. c #0F2B91",
"2. c #272989",
"3. c #2C3588",
"4. c #252893",
"5. c #283599",
"6. c #383B99",
"7. c #35338C",
"8. c #0B04A5",
"9. c #1609B0",
"0. c #152AA6",
"q. c #342FAD",
"w. c #2A14A5",
"e. c #453788",
"r. c #483296",
"t. c #723586",
"y. c #463CA9",
"u. c #4231AE",
"i. c #3B4996",
"p. c #3945A6",
"a. c #3851B6",
"s. c #42479B",
"d. c #4F508D",
"f. c #6B5395",
"g. c #797A88",
"h. c #676598",
"j. c #6E6B90",
"k. c #4747A7",
"l. c #5547A7",
"z. c #4956A3",
"x. c #4949B6",
"c. c #4E53B5",
"v. c #5552B7",
"b. c #5750AD",
"n. c #5866BB",
"m. c #5671B6",
"M. c #696AA8",
"N. c #6869B9",
"B. c #7675B7",
"V. c #7272B0",
"C. c #5F5B9E",
"Z. c #574EC8",
"A. c #5054CC",
"S. c #6B5CD2",
"D. c #5868CA",
"F. c #5873CA",
"G. c #6768C8",
"H. c #6968D7",
"J. c #6E75D7",
"K. c #7879D7",
"L. c #6F6EC9",
"P. c #7A78E5",
"I. c #7571EF",
"U. c #6456E7",
"Y. c #99768A",
"T. c #AB7B88",
"R. c #8A78C2",
"E. c #798F8C",
"W. c #6D82AE",
"Q. c #7F89E0",
"!. c #878888",
"~. c #958586",
"^. c #98968A",
"/. c #959695",
"(. c #8C8D94",
"). c #AF8F8E",
"_. c #93A495",
"`. c #AEA898",
"'. c #8486AA",
"]. c #9399AB",
"[. c #8687B7",
"{. c #9296B6",
"}. c #A494B2",
"|. c #9CA0BA",
" X c #98A7AA",
".X c #A5A6A8",
"XX c #ABB4AA",
"oX c #A8AABA",
"OX c #B6ACB2",
"+X c #ACB5B5",
"@X c #B7B9BA",
"#X c #B8ABA7",
"$X c #D39188",
"%X c #EB9385",
"&X c #D2A984",
"*X c #F8B989",
"=X c #E9A897",
"-X c #F5A898",
";X c #EAB499",
":X c #FBB59B",
">X c #EAAD88",
",X c #C9AEAF",
"<X c #FAB7A6",
"1X c #F6B1A8",
"2X c #CB96B4",
"3X c #B7C2B3",
"4X c #F6C396",
"5X c #CBC5BA",
"6X c #FCC9AE",
"7X c #8587D8",
"8X c #8E8CCC",
"9X c #A7ABCA",
"0X c #B5B8C8",
"qX c #ADB2D8",
"wX c #8586E3",
"eX c #8B88F5",
"rX c #938FF3",
"tX c #A9AAE8",
"yX c #B4B8F5",
"uX c #C7BBC9",
"iX c #B9C4D0",
"pX c #BCC8ED",
"aX c #C6C8C9",
"sX c #D5D5CC",
"dX c #C9C6DA",
"fX c #D3D5D6",
"gX c #D9DAD9",
"hX c #CFCFCF",
"jX c #F9D9C5",
"kX c #E9D2D2",
"lX c #DDE1DA",
"zX c #DFE5CB",
"xX c #E4E6D9",
"cX c #E8F4DC",
"vX c #F8FCD9",
"bX c #F4EBD1",
"nX c #C9C9E5",
"mX c #D9DBE5",
"MX c #CFD3F4",
"NX c #E9DCED",
"BX c #DDE6E4",
"VX c #DDFAF8",
"CX c #DBEFF1",
"ZX c #E7EAE7",
"AX c #F8E9E5",
"SX c #ECF3E9",
"DX c #F7FBE8",
"FX c #E9F6F7",
"GX c #F5FCF3",
"HX c #F5FDFC",
"JX c #FDFDFC",
"KX c #FAF7F6",
"LX c #EBEBF5",
"PX c None",
/* pixels */
"PXPXPXPXPXPXPXPXPXPXPXPXPXPXPXPXPXPXPXPXPXPXPXPXPXPXPXPXPXPXPXPXPXPXPXPXPXPXPXPXPXPXPXPXPXPXPXPXPXPXPXPXPXPXPXPXPXPXPXPXPXPXPXPX",
"PXPXPXPXPXPXPXPXPXPXPXPXPXPXPXPXPXPXPXPXPXPXPXPXPXPXPXPXPXPXPXPXPXPXPXPXPXPXPXPXPXPXPXPXPXPXPXPXPXPXPXPXPXPXPXPXPXPXPXPXPXPXPXPX",
"PXPXPXPXPXPXPXPXPXPXPXPXPXPXPXPXPXPXPXPXPXPXPXPXPXPXPXPXPXPXPXPXPXPXPXPXPXPXPXPXPXPXPXPXPXPXPXPXPXPXPXPXPXPXPXPXPXPXPXPXPXPXPXPX",
"PXPXPXPXPXPXPXPXPXPXPXPXPXPXPXPXPXPXPXPXPXPXPXPXPXPXPXPXPXPXPXPXPXPXPXPXPXPXPXPXPXPXPXPXPXPXPXPXPXPXPXPXPXPXPXPXPXPXPXPXPXPXPXPX",
"PXPXPXPXPXPXPXPXPXPXPXPXPXPXPXPXPXPXPXPXPXPXPXPXPXPXPXPXPXPXPXPXPXPXPXPXPXPXPXPXPXPXPXPXPXPXPXPXPXPXPXPXPXPXPXPXPXPXPXPXPXPXPXPX",
"PXPXPXPXPXPXPXPXPXPXPXPXPXPXPXPXPXPXPXPXPXPXPXPXPXPXPXPXPXPXPXPXPXPXPXPXPXPXPXPXPXPXPXPXPXPXPXPXPXPXPXPXPXPXPXPXPXPXPXPXPXPXPXPX",
"PXPXPXPXPXPXPXPXPXPXPXPXPXPXPXPXPXPXPXPXPXPXPXPXPXPXPXPXPXPXPXPXPXPXPXPXPXPXPXPXPXPXPXPXPXPXPXPXPXPXPXPXPXPXPXPXPXPXPXPXPXPXPXPX",
"PXPXPXPXPXPXPXPXPXPXPXPXPXPXPXPXPXPXPXPXPXPXPXPXPXPXPXPXnXR.[.8X8X[.Y.nXPXPXPXPXPXPXPXPXPXPXPXPXPXPXPXPXPXPXPXPXPXPXPXPXPXPXPXPX",
"PXPXPXPXPXPXPXPXPXPXPXPXPXPXPXPXPXPXPXPXPXPXPXPXnX0XdXnX8X9.y.0.>.8.-.W.pXdXdXqXpXPXPXPXPXPXPXPXPXPXPXPXPXPXPXPXPXPXPXPXPXPXPXPX",
"PXPXPXPXPXPXPXPXPXPXPXPXPXPXPXPXPXPXPXPXPXPXPXxXR.8.0.;.b.m.F.v.k.A.d.5.9.;.-.-.9.qXPXPXPXPXPXPXPXPXPXPXPXPXPXPXPXPXPXPXPXPXPXPX",
"PXPXPXPXPXPXPXPXPXPXPXPXPXPX|.].PXPXPXPXPXiXs.N.H.F.F.L.v.w 1.i.Z.y.b.Z.x.i.4.4.u e.2.f.PXPXPXDXPXPXPXPXPXPXPXPXPXPXPXPXPXPXPXPX",
"PXPXPXPXPXPXPXPXPXPXPXPXPXPXg.i @XPXCX9X9XL.q.Z.D.L.m.0.T.T.:.5.x.l.i 5.5.-.0 5 8 |.dXdXPXPXPXPXPXPXPXPXPXPXPXPXPXPXPXPXPXPXPXPX",
"PXPXPXPXPXPXPXPXPXPXPXPXPXPX[.8 0 fX9X8.9.Z.H.Q.W.A.Z.m +.:Xc a i.u.u 8 3.'.{.'.'.PXPXPXPXPXPXPXPXPXPXPXPXPXPXPXPXPXPXPXPXPXPXPX",
"PXPXPXPXPXPXPXPXPXPXPXPXPXPX{.8 4.i.n.D.B.V.K.eXI.a.s -X:X-X( v *.2.,.0 d.PXPXPXPXPXPXPXPXPXPXPXPXPXPXPXPXPXPXPXPXPXPXPXPXPXPXPX",
"PXPXPXPXPXPXPXPXPXPXPXPXPXPX{.q 6.A.A.I.7XR.rXrXU.Y.>X1X4X>X` d *.i.w |.PXPXPXPXPXPXPXPXPXPXPXPXPXPXPXPXPXPXPXPXPXPXPXPXPXPXPXPX",
"PXPXPXPXPXPXPXPXPXPXPXPXPXPX[.%.U.D.Q.I.R.eXQ.Q.H.}.,X2X$X@.( d 1.i.q {.SXPXPXDXPXPXPXPXPXPXPXPXPXPXPXPXPXPXPXPXPXPXPXPXPXPXPXPX",
"PXPXPXPXPXPXPXPXPXPXPXPXPXPXoXq.H.G.wXeXH.L.N.G.R.wXD.S.Y.^ / c 0.z.s.;.G.SXPXPXPXPXPXPXPXPXPXPXPXPXPXPXPXPXPXPXPXPXPXPXPXPXPXPX",
"PXPXPXPXPXPXPXPXPXPXPXPXPXPX].;.H.wXrXeXP.wXJ.H.H.7XwXH.L.M.f.k.p.c.7.4.c.R.N.9XPXPXPXPXPXPXPXPXPXPXPXPXPXPXPXPXPXPXPXPXPXPXPXPX",
"PXPXPXPXPXPXPXPXPXPXPXPXPXyXB.H.rXP.tXMXMXMXpXU.n.J.7XK.H.D.Z.k.s.k.2.7.7.;.-.M.qX0XCXPXPXPXPXPXPXPXPXPXPXPXPXPXPXPXPXPXPXPXPXPX",
"PXPXPXPXPXPXPXPXPXPXPXPXcX6.v.P.eXtXBXDXHXGXFXtX7XG.L.L.L.F.J.C.k.x.7.9 u x.x.6.;.%.8XPXPXPXPXPXPXPXPXPXPXPXPXPXPXPXPXPXPXPXPXPX",
"PXPXPXPXPXPXPXPXPXPXPXPXPXeXR.S.rXLXJXJXKXKXKXSXtXP.G.G.G.L.K.v.k.6.4.=.2.s.z.x.i.c.k.V.PXPXPXPXPXPXPXPXPXPXPXPXPXPXPXPXPXPXPXPX",
"PXPXPXPXPXPXPXPXPXPXPXPXgXC.A.tXMXOX/.@XGXKXJXDXyXI.F.m.H.L.v.c.k.z.4.=.0.x.7.3.q.i.2.p.8XlXPXPXPXPXPXPXPXPXPXPXPXPXPXPXPXPXPXPX",
"PXPXPXPXPXPXPXPXPXPXPXPXzX. w.MXDXb   j HXGXGXKXyXH.m.N.J.G.y.s.k.6.4.r 4.q.3.9 $.8 q :.-.8XPXPXPXPXPXPXPXPXPXPXPXPXPXPXPXPXPXPX",
"PXPXPXPXPXPXPXPXPXPXPXPXsXO Z.MXvXx . j.FXGXDXJXyXI.L.N.S.S.v.k.y.e 2.i t <.u 4.2.5.3.3.i 8 V.DXPXPXPXPXPXPXPXPXPXPXPXPXPXPXPXPX",
"PXPXPXPXPXPXPXPXPXPXPXPXkX. $ 0XGXb   m JXJXDXJXtXU.I.b.l.c.x.k.p.2.u 4.9 q 8 h.lXcXgXPXMXmXSXPXPXPXPXPXPXPXPXPXPXPXPXPXPXPXPXPX",
"PXPXPXPXPXPXPXPXPXPXPXPXZXv O ].DXb . b LXJXJXMXV.,.k.p.k.l.k.p.7.9 =.q d.oX X5XPXPXPXPXPXPXPXPXPXPXPXPXPXPXPXPXPXPXPXPXPXPXPXPX",
"PXPXPXPXPXPXPXPXPXPXPXPXkX(.. `.NX(.  | FXGXMXa.M.h.N.z.d.x.k.3.=.t 2.&.h.PXPXPXPXPXPXPXPXPXPXPXPXPXPXPXPXPXPXPXPXPXPXPXPXPXPXPX",
"PXPXPXPXPXPXPXPXPXPXPXfX~.% g.| O.fXGXbXGXyXS.u.fXJXZX^.c q.y <.t 5.9 2.k.N.mXPXPXPXPXPXPXPXPXPXPXPXPXPXPXPXPXPXPXPXPXPXPXPXPXPX",
"PXPXPXPXPXPXPXPXPXPXPXoXX   O _ $XjXKXGXGXCXpXnXjXjXjX>X` f.9 *.u 4.6 6.A.-.wXiXqXSXPXPXPXPXPXPXPXPXPXPXPXPXPXPXPXPXPXPXPXPXPXPX",
"PXPXPXPXPXPXPXPXPXPXPX0Xz !.m ).<X#.6XJXKXAXKXDX<X>X:X<X@.^ r.*.<.=.=.6.i k.:.8.%.nXPXPXPXPXPXPXPXPXPXPXPXPXPXPXPXPXPXPXPXPXPXPX",
"PXPXPXPXPXPXPXPXPXPXPXPXPXPXPXbX1X>X<X4X<X:X<X<X<X:X*X<X%X~ r.*.t i u :.u r y.x.p.<.tXPXvXDXPXPXPXPXPXPXPXPXPXPXPXPXPXPXPXPXPXPX",
"PXPXPXPXPXPXPXPXPXPXPXPXPXPXPXkXD ] o.$X;Xo.Y ( &X4X:XO.` s e 4.&.0 $.%.u r 7.e.3.-.qXPXPXvXPXPXPXPXPXPXPXPXPXPXPXPXPXPXPXPXPXPX",
"PXPXPXPXPXPXPXPXPXPXPXPXPXPXPXPX).T B R O.x X . ..-X@._ i -.&.*.f._ ` f.w %.$.0 $.w 7XmXPXPXPXPXPXPXPXPXPXPXPXPXPXPXPXPXPXPXPXPX",
"PXPXPXPXPXPXPXPXPXPXPXPXPXPXPXPXPX..B T ( 2 @ > ^ [ { ,.*.7 # 8 Y.#.*X$Xe i c g 6.6.r h.PXPXPXPXPXPXPXPXPXPXPXPXPXPXPXPXPXPXPXPX",
"PXPXPXPXPXPXPXPXPXPXPXPXPXPXPXPXPXBXPXkXB N ; 5 a r.i $ $ , R f v %X] +.,X;XkXLXvXZXPXPXPXPXPXPXPXPXPXPXPXPXPXPXPXPXPXPXPXPXPXPX",
"PXPXPXPXPXPXPXPXPXPXPXPXPXPXPXPXPXPXPXPX,X,X,XiXf.f z 2 S 2 / ~ d v v ` =X@.6XLXsXsXSXPXPXPXPXPXPXPXPXPXPXPXPXPXPXPXPXPXPXPXPXPX",
"PXPXPXPXPXPXPXPXPXPXPXPXPXPXPXPXPXPXPXPXPXPXPXPX).B ]  .] ] ( o./ 7.0 v T R O.X.7 /.fXPXPXPXPXPXPXPXPXPXPXPXPXPXPXPXPXPXPXPXPXPX",
"PXPXPXPXPXPXPXPXPXPXPXPXPXPXPXPXDXPXPXPXPXPXPXPX` [ ;X>X*X;X>X1X%X~ a :.s l j j m ZXKXOXb 5XPXPXPXPXPXPXPXPXPXPXPXPXPXPXPXPXPXPX",
"PXPXPXPXPXPXPXPXPXPXPXPXPXPXPXPXPXPXPXPXPXPXPXPX` ( <X:X:X4X*X6X=X( t.w w . ,  XBXdX0X Xn .XxXPXPXPXPXPXPXPXPXPXPXPXPXPXPXPXPXPX",
"PXPXPXPXPXPXPXPXPXPXPXPXPXPXPXPXPXPXPXPXPXPXPXPX` ^ ;X;X1X1X<X-X@.( d &.i.(.g..XLXOX_.5XaX@XoXZXPXPXPXPXPXPXPXPXPXPXPXPXPXPXPXPX",
"PXPXPXPXPXPXPXPXPXPXPXPXPXPXPXPXPXPXPXPXPXPXPXPX .C o.>X:X:X:Xo.W ( c $.M.HX3X% ^._.sXGXJXgX.X@XPXPXPXPXPXPXPXPXPXPXPXPXPXPXPXPX",
"PXPXPXPXPXPXPXPXPXPXPXPXPXPXPXPXPXPXPXPXPXPXPXPX2X~ D ` X.X.o.E ~ c x.$.j.GXqX1 _.fXSXJXJXKXZX(.#XZXPXPXPXPXPXPXPXPXPXPXPXPXPXPX",
"PXPXPXPXPXPXPXPXPXPXPXPXPXPXPXPXPXPXPXPXPXPXPXfXXXm A ~ ~ ) ) _ m 1.p.%.h.FX+Xb fXfXxXJXJXZXfXaX.X@XPXPXPXPXPXPXPXPXPXPXPXPXPXPX",
"PXPXPXPXPXPXPXPXPXPXPXPXPXPXPXPXPXPXPXPXPXPXZX!.E.m p y *.1.l.l.u.a.i.8.M.cX`.Y.JX!.!.GXHXaX.XKX@X.XPXPXPXPXPXPXPXPXPXPXPXPXPXPX",
"PXPXPXPXPXPXPXPXPXPXPXPXPXPXPXPXPXPXPXPXPXXXb !.m m | & $.%.& & 5 $.p.q h.JXXX# OXb p !..XgXBX@Xk !.PXPXPXPXPXPXPXPXPXPXPXPXPXPX",
"PXPXPXPXPXPXPXPXPXPXPXPXPXPXPXPXPXPXPXPXPXgX/.k o % } XXfX}.5   Y.dXz.-.V.qX0X,Xl Y.} O % /.XXl /.fXPXPXPXPXPXPXPXPXPXPXPXPXPXPX",
"PXPXPXPXPXPXPXPXPXPXPXPXPXPXPXPXPXPXPXPXPXPXPXn ~.M E.PXPXPXW.q ].KX].n.A.5 lXSX} /./.h b n n b lXPXPXPXPXPXPXPXPXPXPXPXPXPXPXPX",
"PXPXPXPXPXPXPXPXPXPXPXPXPXPXPXPXPXPXPXPXPXPXPXPXAXPXVXPXPXPXPX].%.j.ZXpX1.8 fXHXHX(.. k gXPXPXPXPXPXPXPXPXPXPXPXPXPXPXPXPXPXPXPX",
"PXPXPXPXPXPXPXPXPXPXPXPXPXPXPXPXPXPXPXPXPXPXPXPXPXPXPXPXPXPXPX].4 ,.HXGXnXy.M.hXHXLXaXgXPXPXPXPXPXPXPXPXPXPXPXPXPXPXPXPXPXPXPXPX",
"PXPXPXPXPXPXPXPXPXPXPXPXPXPXPXPXPXPXPXPXPXPXPXPXPXPXPXPXPXPXPXaXh.7.uXJXKXqXw.s.MXPXPXPXPXPXPXPXPXPXPXPXPXPXPXPXPXPXPXPXPXPXPXPX",
"PXPXPXPXPXPXPXPXPXPXPXPXPXPXPXPXPXPXPXPXPXPXPXPXPXPXPXPXPXPXPXPXhX%.0 OXJXJXoX0 8 gXPXPXPXPXPXPXPXPXPXPXPXPXPXPXPXPXPXPXPXPXPXPX",
"PXPXPXPXPXPXPXPXPXPXPXPXPXPXPXPXPXPXPXPXPXPXPXPXPXPXPXPXPXPXPXPXlX%.4 0XHXKXKX3X0 LXPX0XXXxXPXPXPXPXPXPXPXPXPXPXPXPXPXPXPXPXPXPX",
"PXPXPXPXPXPXPXPXPXPXPXPXPXPXPXPXPXPXPXPXPXPXPXPXPXPXPXPXPXPXPXZX,XM d.}.sXDXKXSX9XmXgX.Xg.hXPXPXPXPXPXPXPXPXPXPXPXPXPXPXPXPXPXPX",
"PXPXPXPXPXPXPXPXPXPXPXPXPXPXPXPXPXPXPXPXPXPXPXPXPXPXPXPXPXPXPX@Xg.^.^.v j.SXJXFXGX0X X@XY.uXPXPXPXPXPXPXPXPXPXPXPXPXPXPXPXPXPXPX",
"PXPXPXPXPXPXPXPXPXPXPXPXPXPXPXPXPXPXPXPXPXPXPXPXPXPXPXPXPXPXOX/.} j k & g.cXZX5XsX.X/. .T < /.PXPXPXPXPXPXPXPXPXPXPXPXPXPXPXPXPX",
"PXPXPXPXPXPXPXPXPXPXPXPXPXPXPXPXPXPXPXPXPXPXPXPXPXPXPXPXPXPXm Y.E., h 1 | JX5XS ` ^ x ~ S @ c PXPXPXPXPXPXPXPXPXPXPXPXPXPXPXPXPX",
"PXPXPXPXPXPXPXPXPXPXPXPXPXPXPXPXPXPXPXPXPXPXPXPXPXPXPXCXPXfXA _ g.p % x `.cX#X' ! J B B C * x mXPXPXPXPXPXPXPXPXPXPXPXPXPXPXPXPX",
"PXPXPXPXPXPXPXPXPXPXPXPXPXPXPXPXPXPXPXPXPXPXPXPXPXPXPXOX^.!.z , = = X m }.Y.gXDX,X{ P - V C V + fXPXPXPXPXPXPXPXPXPXPXPXPXPXPXPX",
"PXPXPXPXPXPXPXPXPXPXPXPXPXPXPXPXPXPXPXPXPXPXPXPXPXPX).z l 3 ,   X # B ! [ ! $X,X3XO.E N V V N o aXPXPXPXPXPXPXPXPXPXPXPXPXPXPXPX",
"PXPXPXPXPXPXPXPXPXPXPXPXPXPXPXPXPXPXPXPXPXPXPXPXSX).* + .   o ; C B P K K K Z : ^._._ ; B N S } gXPXPXPXPXPXPXPXPXPXPXPXPXPXPXPX",
"PXPXPXPXPXPXPXPXPXPXPXPXPXPXPXPXPXPXPXPXPXPXPXPXT.- # # o o   J L K P L K P Z B N  ._ V :   g.VXPXPXPXPXPXPXPXPXPXPXPXPXPXPXPXPX",
"PXPXPXPXPXPXPXPXPXPXPXPXPXPXPXPXPXPXkX` T... . .< X * H P K P I I I I H Z Z ; * .     * iXCXgXPXPXPXPXPXPXPXPXPXPXPXPXPXPXPXPXPX",
"PXPXPXPXPXPXPXPXPXPXPXPXPXPXPXPXPXPX,X= * - * * + O @ Z H Z G J F J F V * * @ k XXXX`.,XPXPXPXPXPXPXPXPXPXPXPXPXPXPXPXPXPXPXPXPX",
"PXPXPXPXPXPXPXPXPXPXPXPXPXPXPXPXPXPX+X    . . .   X O o   X X   X   X   o >   (.PXPXPXPXPXPXPXPXPXPXPXPXPXPXPXPXPXPXPXPXPXPXPXPX"
};
