/* XPM */
static char *result[] = {
/* columns rows colors chars-per-pixel */
"64 64 247 2 ",
"   c #020202",
".  c #0B0201",
"X  c #040606",
"o  c #000319",
"O  c #15100B",
"+  c #2E060B",
"@  c #0C0636",
"#  c #2F302E",
"$  c #2C1228",
"%  c #4E0404",
"&  c #740204",
"*  c #71040D",
"=  c #700D2B",
"-  c #493734",
";  c #5F2A28",
":  c #3E4632",
">  c #754F35",
",  c #6C462E",
"<  c #060356",
"1  c #0C0C53",
"2  c #040165",
"3  c #01016C",
"4  c #080668",
"5  c #020073",
"6  c #05027B",
"7  c #031679",
"8  c #171A79",
"9  c #12096B",
"0  c #310C7D",
"q  c #1C297A",
"w  c #12256B",
"e  c #282B7C",
"r  c #36297B",
"t  c #313777",
"y  c #542E4A",
"u  c #4F3572",
"i  c #752C57",
"p  c #4D5051",
"a  c #784E51",
"s  c #5B645D",
"d  c #59516D",
"f  c #73506E",
"g  c #576470",
"h  c #6A6769",
"j  c #787877",
"k  c #726E6C",
"l  c #840308",
"z  c #980306",
"x  c #930C18",
"c  c #B1030D",
"v  c #8C3632",
"b  c #AB3C33",
"n  c #D8060D",
"m  c #FA0007",
"M  c #ED0616",
"N  c #FF0225",
"B  c #DE3E3A",
"V  c #8F5236",
"C  c #8E6434",
"Z  c #A9523E",
"A  c #DE4732",
"S  c #855547",
"D  c #8E4E52",
"F  c #AA5A51",
"G  c #946B4E",
"H  c #B27350",
"J  c #894D6C",
"K  c #867573",
"L  c #926F7D",
"P  c #B1786C",
"I  c #C9564E",
"U  c #CF756E",
"Y  c #D97058",
"T  c #728D76",
"R  c #B88A5D",
"E  c #898676",
"W  c #B88475",
"Q  c #BA8267",
"!  c #C98559",
"~  c #D59575",
"^  c #D08C73",
"/  c #F3B675",
"(  c #03018E",
")  c #040184",
"_  c #0A158B",
"`  c #1B1C88",
"'  c #070293",
"]  c #1C1996",
"[  c #0F0B91",
"{  c #251C87",
"}  c #271E9C",
"|  c #341F94",
" . c #082488",
".. c #172684",
"X. c #22248B",
"o. c #272B84",
"O. c #2C3189",
"+. c #353689",
"@. c #2A2897",
"#. c #383898",
"$. c #372887",
"%. c #0604A6",
"&. c #130CAD",
"*. c #0D33AC",
"=. c #393BAA",
"-. c #342FAC",
";. c #251EBC",
":. c #4A398E",
">. c #483CB0",
",. c #34458B",
"<. c #384295",
"1. c #3D44A7",
"2. c #3B44B6",
"3. c #454898",
"4. c #455398",
"5. c #555691",
"6. c #6A579C",
"7. c #6B4887",
"8. c #7A7786",
"9. c #646A98",
"0. c #74698A",
"q. c #4344A5",
"w. c #4648A9",
"e. c #534AA8",
"r. c #4C54A7",
"t. c #5756A9",
"y. c #4747B6",
"u. c #4A52B6",
"i. c #5B5AB9",
"p. c #675CBC",
"a. c #5B67B8",
"s. c #5C69AD",
"d. c #777AA8",
"f. c #6968B6",
"g. c #6873B7",
"h. c #6C67AE",
"j. c #426B9F",
"k. c #3323C1",
"l. c #4339C0",
"z. c #3B51C0",
"x. c #4C49C3",
"c. c #5A5AC8",
"v. c #4D4FC2",
"b. c #5B66C7",
"n. c #5A67CB",
"m. c #6669CA",
"M. c #7469CA",
"N. c #666AD8",
"B. c #6A77D8",
"V. c #7679D7",
"C. c #7074CE",
"Z. c #746AE5",
"A. c #7A7AE4",
"S. c #6470E0",
"D. c #6C5DDA",
"F. c #835B85",
"G. c #8E7686",
"H. c #837BBC",
"J. c #A17598",
"K. c #8679EC",
"L. c #817ED5",
"P. c #7A8796",
"I. c #7A8786",
"U. c #7C82B6",
"Y. c #7C86D7",
"T. c #7A8EED",
"R. c #898987",
"E. c #88968B",
"W. c #8D8F92",
"Q. c #979797",
"!. c #94908F",
"~. c #AD918E",
"^. c #98A692",
"/. c #A6A79A",
"(. c #8A8ABA",
"). c #9396B4",
"_. c #898EA9",
"`. c #A79DA7",
"'. c #9CA5B1",
"]. c #A8A8A9",
"[. c #ADB5A9",
"{. c #B8B8B6",
"}. c #ABB1B4",
"|. c #D2988F",
" X c #F59685",
".X c #E7A589",
"XX c #FAAE88",
"oX c #F8B687",
"OX c #FBB899",
"+X c #EEB094",
"@X c #C79AA9",
"#X c #D4B9B2",
"$X c #FBABA4",
"%X c #F8B6A5",
"&X c #F7B6B3",
"*X c #AFC4B2",
"=X c #F3C18D",
"-X c #C3C3BE",
";X c #C7C4BA",
":X c #CECCB2",
">X c #FAD6B3",
",X c #9799C5",
"<X c #868BCB",
"1X c #99A2CC",
"2X c #A6AAC9",
"3X c #AEB3D1",
"4X c #8785E4",
"5X c #8A88F7",
"6X c #9996F6",
"7X c #9391F0",
"8X c #B6B7F1",
"9X c #A49BF6",
"0X c #C3BDDA",
"qX c #C4B2CD",
"wX c #FFBBC1",
"eX c #BBC8C5",
"rX c #BDCFD0",
"tX c #C4C6C2",
"yX c #CAC9C8",
"uX c #D2D4CA",
"iX c #CBCBD8",
"pX c #CBD4D7",
"aX c #D7D8D8",
"sX c #D4CDCF",
"dX c #EAD2D4",
"fX c #DBE4DC",
"gX c #DFE1CC",
"hX c #E6E7DB",
"jX c #EFF3D9",
"kX c #CAD5E7",
"lX c #D7D9E7",
"zX c #D6D7F7",
"xX c #CECFF1",
"cX c #DCE4E5",
"vX c #D7E3FC",
"bX c #EBECE6",
"nX c #E4E8E8",
"mX c #F8E7E6",
"MX c #EDF5E5",
"NX c #F9FAEA",
"BX c #E6E7F9",
"VX c #EAFAF9",
"CX c #FBFDF4",
"ZX c #FDFDFD",
"AX c #F5F8FA",
"SX c #E8D1ED",
"DX c None",
/* pixels */
"DXDXDXDXDXDXDXDXDXDXDXDXDXDXDXDXDXDXDXDXDXDXDXDXDXDXDXDXDXDXDXDXDXDXDXDXDXDXDXDXDXDXDXDXDXDXDXDXDXDXDXDXDXDXDXDXDXDXDXDXDXDXDXDX",
"DXDXDXDXDXDXDXDXDXDXDXDXDXDXDXDXDXDXDXDXDXDXDXDXDXDXDXDXDXDXDXDXDXDXDXDXDXDXDXDXDXDXDXDXDXDXDXDXDXDXDXDXDXDXDXDXDXDXDXDXDXDXDXDX",
"DXDXDXDXDXDXDXDXDXDXDXDXDXDXDXDXDXDXDXDXDXDXDXDXDXDXDXDXDXDXDXDXDXDXDXDXDXDXDXDXDXDXDXDXDXDXDXDXDXDXDXDXDXDXDXDXDXDXDXDXDXDXDXDX",
"DXDXDXDXDXDXDXDXDXDXDXDXDXDXDXDXDXDXDXDXDXDXDXDXDXDXDXDXDXDXDXDXDXDXDXDXDXDXDXDXDXDXDXDXDXDXDXDXDXDXDXDXDXDXDXDXDXDXDXDXDXDXDXDX",
"DXDXDXDXDXDXDXDXDXDXDXDXDXDXDXDXDXDXDXDXDXDXDXDXDXDXDXDXDXDXDXDXDXDXDXDXDXDXDXDXDXDXDXDXDXDXDXDXDXDXDXDXDXDXDXDXDXDXDXDXDXDXDXDX",
"DXDXDXDXDXDXDXDXDXDXDXDXDXDXDXDXDXDXDXDXDXDXDXDXDXDXDXDXDXDXDXDXDXDXDXDXDXDXDXDXDXDXDXDXDXDXDXDXDXDXDXDXDXDXDXDXDXDXDXDXDXDXDXDX",
"DXDXDXDXDXDXDXDXDXDXDXDXDXDXDXDXDXDXDXDXDXDXDXDXDXDXDXDXDXDXDXDXDXDXDXDXDXDXDXDXDXDXDXDXDXDXDXDXDXDXDXDXDXDXDXDXDXDXDXDXDXDXDXDX",
"DXDXDXDXDXDXDXDXDXDXDXDXDXDXDXDXDXDXDXDXDXDXDXDXDXDXDXDXDXDXDXDXDXDXDXDXDXDXDXDXDXDXDXDXDXDXDXDXDXDXDXDXDXDXDXDXDXDXDXDXDXDXDXDX",
"DXDXDXDXDXDXDXDXDXDXDXDXDXDXDXDXDXDXDXDXDXDXDXDXDXDXDXDXDXDXDXDXDXDXDXDXDXDXDXDXDXDXDXDXDXDXDXDXDXDXDXDXDXDXDXDXDXDXDXDXDXDXDXDX",
"DXDXDXDXDXDXDXDXDXDXDXDXDXDXDXDXDXDXDXDXDXDXDXDXDXDXDXDXDXDXDXDXDXbXDXDXDXDXDXNXDXDXDXDXDXDXDXDXDXDXDXDXDXDXDXDXDXDXDXDXDXDXDXDX",
"DXDXDXDXDXDXDXDXDXDXDXDXDXDXDXDXDXDXDXDXDXDXDXDXDXDXDX(.e.h.M.g.a.H.bXDXDXDXDXDXDXDXDXDXDXDXDXDXDXDXDXDXDXDXDXDXDXDXDXDXDXDXDXDX",
"DXDXDXDXDXDXDXDXDXDXDXDXDXDXDXDXDXDXDXDXDXlX2X2X3X2X2Xt.] -.] w.u.v.'.3X2X'.DXDXDXDXDXDXDXDXDXDXDXDXDXDXDXDXDXDXDXDXDXDXDXDXDXDX",
"DXDXDXDXDXDXDXDXDXDXDXDXDXDXDXDXDXDXDXuXcX(.) %.) [ ( q.r.u.#.f.a.z.k.;.*.' qXBXnXDXDXDXDXDXDXlXDXDXDXDXDXDXDXDXDXDXDXDXDXDXDXDX",
"DXDXDXDXDXDXDXDXDXDXDXDXDXDXDXDXDXDX0X< X.] ` q q.w.w.=.1.1.r.O.7 X.p.V.Y.N.c.2.+.zXDXDXDXDXDXt sXDXDXDXDXDXDXDXDXDXDXDXDXDXDXDX",
"DXDXDXDXDXDXDXDXDXDXDXDXDXDXDXDXDXDXnXaXcXd.4 ( ) 6 +.@.1.q.x.' L .X6.*.S.N.c.5.n.<X<X,XDXcXd.5 iXDXDXDXDXDXDXDXDXDXDXDXDXDXDXDX",
"DXDXDXDXDXDXDXDXDXDXDXDXDXDXDXDXDXDXDXDXDXpX'.'.}.d.3 w +.3.:.r P oXU 6.2.s.V.A.g.x.( e.kX).< ) iXDXDXDXDXDXDXDXDXDXDXDXDXDXDXDX",
"DXDXDXDXDXDXDXDXDXDXDXDXDXDXDXDXDXDXDXDXDXDXDXDXDXlX| o.8 7 ..S ^ +X%X@XO.j.4X5XM.m.B.n.=.` 8 ( lXDXDXDXDXDXDXDXDXDXDXDXDXDXDXDX",
"DXDXDXDXDXDXDXDXDXDXDXDXDXDXDXDXDXDXDXDXNXDXDXDXDXDXhXg ) 1._ L ~ OXOXXX|.9.V.6X7X6XC.s.D.i.@.6 tXDXDXDXDXDXDXDXDXDXDXDXDXDXDXDX",
"DXDXDXDXDXDXDXDXDXDXDXDXDXDXDXDXDXDXDXDXDXDXDXDXDXDXrX5.#.v._ J R ~ `.`.@XK.B.V.5XV.Y.Y.N.N.u.6 iXDXDXDXDXDXDXDXDXDXDXDXDXDXDXDX",
"DXDXDXDXDXDXDXDXDXDXDXDXDXDXDXDXDXDXDXDXDXDXDXDXDX8X' #.4.y.q f G L p.n.n.5XV.g.m.C.4X7XV.f.i.@.zXDXDXDXDXDXDXDXDXDXDXDXDXDXDXDX",
"DXDXDXDXDXDXDXDXDXDXDXDXDXDXDXDXDXDXDXDXDXDXnXt.5.i.>.@.=.<.3.:.7.C.m.K.5XY.a.M.K.5X5X5X6XT.c.@.zXDXDXDXDXDXDXDXDXDXDXDXDXDXDXDX",
"DXDXDXDXDXDXDXDXDXDXDXDXDXDXDXDXDXDXDXDX3X1X,X#.@.@.#.@.=.r.q.i.m.N.m.g.K.i.n.6XkXzXBXzX1X4XZ.m.H.iXDXDXDXDXDXDXDXDXDXDXDXDXDXDX",
"DXDXDXDXDXDXDXDXDXDXDXDXDXDXDXDXDXDXDXtX=.%.&.3.y.:.` 9 w.y.q.f.g.b.B.m.n.A.6XzXNXNXZXAXkX9XA.C.@.,XDXDXDXDXDXDXDXDXDXDXDXDXDXDX",
"DXDXDXDXDXDXDXDXDXDXDXDXDXDXDXDXDXDX8X' >.q.3.3.e.>.{ w +.x.q.b.C.m.B.M.f.L.zXCXAXAXAXAXVXzXK.C.Z.8XDXDXDXDXDXDXDXDXDXDXDXDXDXDX",
"DXDXDXDXDXDXDXDXDXDXDXDXDXDXDXDXDX2Xs.@.-.+.o.O.y.,.q 8 +.e.y.x.c.m.B.h.M.V.cXZXAXVXpXT G.qXvXY.] ).DXDXDXDXDXDXDXDXDXDXDXDXDXDX",
"DXDXDXDXDXDXDXDXDXDXDXDXDXDXDXnX3XX.' ( 3 4 6 ..t O.{ X.#.:.y.>.t.m.s.N.M.T.lXZXZXAX*XX   :XVX7X3 E DXDXDXDXDXDXDXDXDXDXDXDXDXDX",
"DXDXDXDXDXDXDXDXDXDXDXDXDXDXDXaX@.r.9.5.9.5.3.` { X.` 8 w t q.3.c.V.a.m.Z.5XxXZXNXCX;X.   *XVX6X9 E DXDXDXDXDXDXDXDXDXDXDXDXDXDX",
"DXDXDXDXDXDXDXDXDXDXDXDXDXDXDXDXhXDXDXhXjXDX8X5 2 2 o.o.8 e 3.u.e.w.4.r.D.Z.kXCXNXZXiXX   eXVXd o R.DXDXDXDXDXDXDXDXDXDXDXDXDXDX",
"DXDXDXDXDXDXDXDXDXDXDXDXDXDXDXDXDXDXDXDXDXDXBXyXkX'.< ] ] ..=.<.e.=.1.x.-.[ <XkXCXZXyXX X *XjX-   ].DXDXDXDXDXDXDXDXDXDXDXDXDXDX",
"DXDXDXDXDXDXDXDXDXDXDXDXDXDXDXDXDXDXDXDXDXDXDXDXDX3X5 } ..8 { +.<.1.6.h.<X<Xu.Y.BXZX:Xj h *X>Xh d [.bXDXDXDXDXDXDXDXDXDXDXDXDXDX",
"DXDXDXDXDXDXDXDXDXDXDXDXDXDXDXDXDXDXDXDXDXDXDXDX).} >.o.{ o.w @.t >.S #XZXAX'.-.7XvXZXAXAX#XC !.p - ^.nXDXDXDXDXDXDXDXDXDXDXDXDX",
"DXDXDXDXDXDXDXDXDXDXDXDXDXDXDXDXDXDXDXDXDXlX).2Xm.-.w.O.` e q ) :.G.~ &X>X>XgXxXvXBXZXZXdXOX~ - X o   dXDXDXDXDXDXDXDXDXDXDXDXDX",
"DXDXDXDXDXDXDXDXDXDXDXDXDXDXDXDXDXDXDXDXlXU.%.%.-.q.,.$.8 ` ..( d H +XoXoXoXdXNXNXmXjXhX%X$X$X^.Q.!.Q.nXDXDXDXDXDXDXDXDXDXDXDXDX",
"DXDXDXDXDXDXDXDXDXDXDXDXDXDXDXDXDXDXDXvXt.X.w.u.@.8 q 8 X...q _ u H .X&X&XXX$X X.XOXXXoX+X+X&XDXDXDXDXDXDXDXDXDXDXDXDXDXDXDXDXDX",
"DXDXDXDXDXDXDXDXDXDXDXDXDXDXDXDXDXDXNXNXm.' e o.o.r _ ) 6 5 { w r 7.H .X&XOXU , > .XXXR ! b U DXDXDXDXDXDXDXDXDXDXDXDXDXDXDXDXDX",
"DXDXDXDXDXDXDXDXDXDXDXDXDXDXDXDXDXDXnX2X$.) 5 2 6 ) ` J.~.~.:.4 2 ` u P .X~ C o . ~.U c & P #XVXDXDXDXDXDXDXDXDXDXDXDXDXDXDXDXDX",
"DXDXDXDXDXDXDXDXDXDXDXDXDXDXDXDXDXDX0X:.9.9.g.9.6.u a oXoX.X+.@ y ` 9 f Z G a $ % V F F v :XDXDXDXDXDXDXDXDXDXDXDXDXDXDXDXDXDXDX",
"DXDXDXDXDXDXDXDXDXDXDXDXDXDXDXDXDXDXDXDXbXNXAXMX#XoXoXW I U _ J a o   1 t u { 0 & * ~.NXDXDXDXDXDXDXDXDXDXDXDXDXDXDXDXDXDXDXDXDX",
"DXDXDXDXDXDXDXDXDXDXDXDXDXDXDXDXDXDXDXDXfX;X:XmX+XU ~ 0.u J d F F a , S u = `.SXsXwXmXDXDXDXDXDXDXDXDXDXDXDXDXDXDXDXDXDXDXDXDXDX",
"DXDXDXDXDXDXDXDXDXDXDXDXDXDXDXDXDXhXDXbXyXk , ~ H Z f ] 7 J ~ ! R Q U ^ U l sXDXDXDXDXDXDXDXDXDXDXDXDXDXDXDXDXDXDXDXDXDXDXDXDXDX",
"DXDXDXDXDXDXDXDXDXDXDXDXDXDXDXDXDXj k pXZX-Xh p : d o.4 D R XXoX/ +X$X$X Xz qXDXDXDXDXDXDXDXDXDXDXDXDXDXDXDXDXDXDXDXDXDXDXDXDXDX",
"DXDXDXDXDXDXDXDXDXDXDXDXDXDXDXDX;X^.!.].{.aXuXK O < ]  .D ^ XXXXOXOX=X+X+Xz :XDXDXDXDXDXDXDXDXDXDXDXDXDXDXDXDXDXDXDXDXDXDXDXDXDX",
"DXDXDXDXDXDXDXDXDXDXDXDXDXDXDX;XQ.uXuX*XE.uXuXj /.U.( ' J H  X$X&XOXoX%X~ z tXDXDXDXDXDXDXDXDXDXDXDXDXDXDXDXDXDXDXDXDXDXDXDXDXDX",
"DXDXDXDXDXDXDXDXDXDXDXDXDXDXtX[.-XNXZXCXeXQ.s p NXcX2 7 f P H |.%XXXOX~ V & dXDXDXDXDXDXDXDXDXDXDXDXDXDXDXDXDXDXDXDXDXDXDXDXDXDX",
"DXDXDXDXDXDXDXDXDXDXDXDXDX*X!.{.CXAXAXCXZXsXI.p nXlX< #.:.f G R P R U I v j aXDXDXDXDXDXDXDXDXDXDXDXDXDXDXDXDXDXDXDXDXDXDXDXDXDX",
"DXDXDXDXDXDXDXDXDXDXDXDXDXQ.;XuXpXZXZXbXtXaX{.p bXlX5 y.-.:.0.f J a J = i I.{.cXDXDXDXDXDXDXDXDXDXDXDXDXDXDXDXDXDXDXDXDXDXDXDXDX",
"DXDXDXDXDXDXDXDXDXDXDXDXbXR.aXlXQ.nXCXaXO yXpXp nXkX6 1.w.3.:.:. . .7 u k T E /.bXDXDXDXDXDXDXDXDXDXDXDXDXDXDXDXDXDXDXDXDXDXDXDX",
"DXDXDXDXDXDXDXDXDXDXDXDXcX- j sXCX}.T p # W.R.$ bXcX2 y.{ < @ X 1 ` < h E g j R.p sXDXDXDXDXDXDXDXDXDXDXDXDXDXDXDXDXDXDXDXDXDXDX",
"DXDXDXDXDXDXDXDXDXDXDXDXDXsXh h /.p X p ).s E kX3X_.l.6 2XiXt @ 8.kXpX}.# . . K yXDXDXDXDXDXDXDXDXDXDXDXDXDXDXDXDXDXDXDXDXDXDXDX",
"DXDXDXDXDXDXDXDXDXDXDXDXDXDX{.R.R.Q.k p `.Q.{.NXP.) V.U.sXkXt t.3XDXDXuXQ.!.!.{.DXDXDXDXDXDXDXDXDXDXDXDXDXDXDXDXDXDXDXDXDXDXDXDX",
"DXDXDXDXDXDXDXDXDXDXDXDXDXDXDXDXDXDXqXX $ pXCXNXP.' 4XAX3X< 6 uXDXDXDXDXDXDXDXDXDXDXDXDXDXDXDXDXDXDXDXDXDXDXDXDXDXDXDXDXDXDXDXDX",
"DXDXDXDXDXDXDXDXDXDXDXDXDXDXDXDXDXDXDXaXcXCXMX<X&.'.nXAXrX< 4 pXDXDXDXDXDXDXDXDXDXDXDXDXDXDXDXDXDXDXDXDXDXDXDXDXDXDXDXDXDXDXDXDX",
"DXDXDXDXDXDXDXDXDXDXDXDXDXDXDXDXDXDXDXDXDXbX).2 ).BXAXcXP.t ,XbXDXDXDXDXDXDXDXDXDXDXDXDXDXDXDXDXDXDXDXDXDXDXDXDXDXDXDXDXDXDXDXDX",
"DXDXDXDXDXDXDXDXDXDXDXDXDXDXDXDXDXDXDXDXDX).1 5.MXZXBXd 2 ,XDXDXDXDXDXDXDXDXDXDXDXDXDXDXDXDXDXDXDXDXDXDXDXDXDXDXDXDXDXDXDXDXDXDX",
"DXDXDXDXDXDXDXDXDXDXDXDXDXDXDXDXDX[.].uXDX(.h.nXAXZXNXf.5 d.DXDXDXDXDXDXDXDXDXDXDXDXDXDXDXDXDXDXDXDXDXDXDXDXDXDXDXDXDXDXDXDXDXDX",
"DXDXDXDXDXDXDXDXDXDXDXDXDXDXDXDXDX}.W.{.aXiXlXCXZXhX[.8.9.W.tXDXDXDXDXDXDXDXDXDXDXDXDXDXDXDXDXDXDXDXDXDXDXDXDXDXDXDXDXDXDXDXDXDX",
"DXDXDXDXDXDXDXDXDXDXDXDXDXDXDXDXaXQ././.^.cXZXmXAXeXX K I.P.I.yXDXDXDXDXDXDXDXDXDXDXDXDXDXDXDXDXDXDXDXDXDXDXDXDXDXDXDXDXDXDXDXDX",
"DXDXDXDXDXDXDXDXDXDXDXDXDXDXDXyX+ * G !.E.}.[.[.VXrX$ p , a R.R.yXDXDXDXDXDXDXDXDXDXDXDXDXDXDXDXDXDXDXDXDXDXDXDXDXDXDXDXDXDXDXDX",
"DXDXDXDXDXDXDXDXDXDXDXDXDXDXDXaX. * v S S I I V MXfXh p # g `.J |.DXDXDXDXDXDXDXDXDXDXDXDXDXDXDXDXDXDXDXDXDXDXDXDXDXDXDXDXDXDXDX",
"DXDXDXDXDXDXDXDXDXDXDXDXDXDXnX].% l z z c B Y @XfXsXR.t # p G.= ~.nXhXDXDXDXDXDXDXDXDXDXDXDXDXDXDXDXDXDXDXDXDXDXDXDXDXDXDXDXDXDX",
"DXDXDXDXDXDXDXDXDXDXDXDXDXDXR.O x l l n M ^ *XZX}.L E , % % + # s R.j #XDXDXDXDXDXDXDXDXDXDXDXDXDXDXDXDXDXDXDXDXDXDXDXDXDXDXDXDX",
"DXDXDXDXDXDXDXDXDXDXDXDXDXDXj   x x l v P {.{.W I B A M z o   $ - p - D @XDXDXDXDXDXDXDXDXDXDXDXDXDXDXDXDXDXDXDXDXDXDXDXDXDXDXDX",
"DXDXDXDXDXDXDXDXDXDXDXDXDXDXyXR.* & l > I._.K z n m m M n c c * . +   + = #XmXDXDXDXDXDXDXDXDXDXDXDXDXDXDXDXDXDXDXDXDXDXDXDXDXDX",
"DXDXDXDXDXDXDXDXDXDXDXDXDXDXDXsXX . l D E.G z z M N N M M m N z X X   O & * ;XDXDXDXDXDXDXDXDXDXDXDXDXDXDXDXDXDXDXDXDXDXDXDXDXDX"
};
