/* XPM */
static char *result[] = {
/* columns rows colors chars-per-pixel */
"64 64 217 2 ",
"   c #003500",
".  c #003D00",
"X  c #002E00",
"o  c #750000",
"O  c #6C0A12",
"+  c #703133",
"@  c #004400",
"#  c #024B00",
"$  c #0B4D00",
"%  c #0C5201",
"&  c #085700",
"*  c #135401",
"=  c #165A01",
"-  c #1B5C01",
";  c #1A5A08",
":  c #245A11",
">  c #1E6202",
",  c #236403",
"<  c #296702",
"1  c #246901",
"2  c #2C6D01",
"3  c #24640A",
"4  c #27690A",
"5  c #2B6C0A",
"6  c #296508",
"7  c #316F02",
"8  c #336F08",
"9  c #2E7101",
"0  c #2E720A",
"q  c #307101",
"w  c #357A04",
"e  c #3A7D05",
"r  c #32750A",
"t  c #357B0B",
"y  c #397E0C",
"u  c #327512",
"i  c #367A11",
"p  c #3A7E13",
"a  c #2D5822",
"s  c #345D2A",
"d  c #3C672C",
"f  c #4C762E",
"g  c #4A742F",
"h  c #4E7730",
"j  c #4D7830",
"k  c #436F2F",
"l  c #527A4B",
"z  c #950100",
"x  c #9A1A00",
"c  c #920014",
"v  c #9C3B00",
"b  c #9B2A00",
"n  c #AE3100",
"m  c #D13F25",
"M  c #A9480F",
"N  c #AB542D",
"B  c #C04E00",
"V  c #C56A00",
"C  c #D76E0E",
"Z  c #E67902",
"A  c #E47C19",
"S  c #C85B39",
"D  c #C95E27",
"F  c #D66930",
"G  c #E17523",
"H  c #984A52",
"J  c #92625D",
"K  c #97617E",
"L  c #916263",
"P  c #A3696D",
"I  c #8D5575",
"U  c #CE714A",
"Y  c #D57345",
"T  c #CE6F4A",
"R  c #C5746D",
"E  c #3C8305",
"W  c #378009",
"Q  c #3C830B",
"!  c #3F890C",
"~  c #3F8900",
"^  c #3C8213",
"/  c #3F8811",
"(  c #408707",
")  c #438D04",
"_  c #41860B",
"`  c #448C0C",
"'  c #4C9C01",
"]  c #46910C",
"[  c #49940D",
"{  c #4D9B0D",
"}  c #469301",
"|  c #509E0D",
" . c #418712",
".. c #438C12",
"X. c #488E11",
"o. c #438B1A",
"O. c #479213",
"+. c #4A9512",
"@. c #4E9A12",
"#. c #4A9319",
"$. c #4B9519",
"%. c #519E13",
"&. c #529E1A",
"*. c #50931C",
"=. c #4EA000",
"-. c #4FA00D",
";. c #51A10E",
":. c #50A100",
">. c #53A213",
",. c #58A617",
"<. c #55A319",
"1. c #58A71A",
"2. c #588F32",
"3. c #62983B",
"4. c #628F38",
"5. c #6AA13F",
"6. c #59834A",
"7. c #658E47",
"8. c #658E4A",
"9. c #69914D",
"0. c #6B9A49",
"q. c #759956",
"w. c #6CA241",
"e. c #7DB253",
"r. c #7FB258",
"t. c #76A751",
"y. c #678361",
"u. c #BAA700",
"i. c #D49500",
"p. c #D09205",
"a. c #E88700",
"s. c #E69300",
"d. c #F49211",
"f. c #C5A400",
"g. c #DEBD00",
"h. c #F3A800",
"j. c #E5B700",
"k. c #F6B703",
"l. c #F09836",
"z. c #F8AF36",
"x. c #F9DB00",
"c. c #F0C80A",
"v. c #F8E700",
"b. c #F8F400",
"n. c #F9F808",
"m. c #F8F916",
"M. c #FAC626",
"N. c #F8D737",
"B. c #F8D631",
"V. c #F8E628",
"C. c #FCFD28",
"Z. c #FAEB34",
"A. c #80B455",
"S. c #81B458",
"D. c #B48578",
"F. c #94AD7C",
"G. c #D0834A",
"H. c #ED9641",
"J. c #F0934F",
"K. c #F1BA55",
"L. c #F7AD43",
"P. c #C78176",
"I. c #C7816B",
"U. c #EDAB76",
"Y. c #F0996F",
"T. c #F4D94E",
"R. c #F7EA5C",
"E. c #F9F65A",
"W. c #F7E469",
"Q. c #F6EA75",
"!. c #F7F476",
"~. c #F8FB6B",
"^. c #F8D377",
"/. c #9D7189",
"(. c #AF7D84",
"). c #9E9294",
"_. c #AE808C",
"`. c #A69A9B",
"'. c #B5898F",
"]. c #A7B88C",
"[. c #B8BB96",
"{. c #ADA1A3",
"}. c #B4A4A6",
"|. c #B6B5AC",
" X c #DC9E84",
".X c #E09C91",
"XX c #D9AE85",
"oX c #C8B6B5",
"OX c #D4BBB6",
"+X c #C1AEAE",
"@X c #EBBCB0",
"#X c #ACC189",
"$X c #F4D59D",
"%X c #F7C298",
"&X c #F6F788",
"*X c #FAF997",
"=X c #F6E494",
"-X c #CECABD",
";X c #D6E1B4",
":X c #F7E7A6",
">X c #FAFAAA",
",X c #F6EBBC",
"<X c #F7E6BA",
"1X c #F7F4BC",
"2X c #FAF7B8",
"3X c #F6C7A7",
"4X c #C4BAC0",
"5X c #CDC3C5",
"6X c #D9D5D6",
"7X c #E8CCC9",
"8X c #F7E5C5",
"9X c #FAF6C5",
"0X c #F8F8C8",
"qX c #F7F6DA",
"wX c #F9FAE8",
"eX c #F6F9FE",
"rX c #FAFDF7",
/* pixels */
"0.5.5.5.5.5.w.2.g f h j h j h j j j h j j j f f h f f f j f h j f 2.w.5.w.2.a d j j h f f f j f j f j k a k 0.w.w.w.w.7.s s a y.",
"| =.' =.=.{ { e < 2 2 2 2 2 2 2 2 2 2 2 2 2 2 2 2 2 2 2 2 2 2 2 < e | ' | E # - 2 2 2 2 2 2 2 9 2 2 2 , # < ' =.=.' =.) & & @ l ",
",.;.>.;.>.t ; 5 q q q q q q q q q q q 7 9 q q q q q q q q q q q 7 w w e t q 5 2 q q q q q q q q r 2 * * # 4 &.;.-.>.>.-.&.o.@ l ",
"@.@.{ @.%.0 @ , q q q q q q q q w q q q 7 9 q 7 q q 9 q q q q q q q q q q q 7 7 7 q q q 9 q q q 2 < % = & 5 @.;.>.-.{ @.>.$.# 6.",
"; ; ; 9 w 9 2 2 q q 7 q q q 2 ` { { @.( 2 q 7 q q q 7 q q q 2 E { { { { %.( 7 q 7 q q q 2 e %...# 4 O.+.] { >.-.>.O.> 5 @.>.~ t.",
"* % $ < 7 q q q q q q q q q 9 ) >.>.%.` 2 q q q 7 q q q q q 2 ( %.| >.;.>.] 9 q q q 7 q 9 E >.O.# 5 >.>.>.-.;.%.%./ & , @.&.=.S.",
"$.e < 7 q q 9 ` | | %.e 2 ( %.{ >.) w q 2 q 7 q 9 2 q q q q 7 q q ` >.;.;.| | ` 9 q 2 e { { ;.{ ] @.-.;.;.-.>.+.> > #./ = 0 ' r.",
"&.( 2 q q q 9 ` %.%.>.` < ` >.%.@.` 2 q q q q q q 7 q 7 7 9 q q 2 Q %.| ;.;.>.O.2 q 2 E >.| ;.;.>.;.;.;.;.-.>.o.# > &.O.# 4 } r.",
"w q q ` @.@.@.w = / ,.{ @.@.>.Q = y %.@.@.( 2 q 7 9 q q q q q 7 q 2 ; t >.-.>.o.# 0 $.{ >.| >.;.-.>.;.>.<.O.> - % ; w q 2 5 % 6.",
"8 q 7 ] >.-.>.0 @ y @.@.;.-.@.r @ e >.%.%.` 2 q q q 7 q q q q q q 1 # 9 >.-.%.^ @ 0 ,.;.-.-.@.{ ;.-.@.@.%.o.# $ % = 2 q q 0 @ l ",
"7 7 7 q w ] >.+.O.r = / <.W = W #.{ ;.` q w 7 q q 2 q 9 2 E +.{ @.@.O.+.>.! > - # 5 >.-.>.] > r <.] > , > 0 O. .< 2 q q 7 r > 8.",
"7 7 7 7 2 ` %.>.<.r @ ^ <.u @ W <.| >.` 2 q 7 q q q 7 q 7 ( %.>.;.;.;.;.<.Q # % # 5 &.@.<.^ @ 6 &.! # $ # 3 <.@.9 q q q q q 1 9.",
"7 7 7 7 q < > ! <.0 # - > = $ ; , 2 w q q 7 q q q 7 q q q q w ) ;.;.-.;.;.{ #.p # ; , , , ; % * > 2 O.^ # 4 %.@.2 q q q 2 r 1 7.",
"8 7 q 7 q - @ Q <.r # $ $ $ * % # , 7 2 9 9 7 q q q 7 q 9 q 2 ( ,.@.&.&.%.%.<.o.# % # # $ % % % # , >./ # 4 %.@.9 q 9 q 9 q 1 7.",
"7 7 q 9 q 2 5 q e , $ * * - 6 2 5 2 q q 7 2 7 9 q q 9 q q q q q w 9 , 4 3 3 > 0 #.O.#.^ # 1 #.#.O.O.;.-.O.@.<.O.* < #.[ @.X.1 7.",
"7 q q 7 7 q q 9 2 - # % # , q 7 q 7 q q q q q q 9 9 9 2 q q q 7 9 , # # $ $ @ 0 <.;.<.! # 5 &.@.>.>.&.>.>.;.;.O.# > %.>.&.&.1 7.",
"7 7 7 q q q 7 q 9 Q #.X.X.O.+.E 2 q q q q q 9 Q [ +.+._ 7 7 q 7 q 2 5 < 2 5 < e >.>.-.{ O.^ > t >.] > t ;.;.;.@.O.+.>.+.> 5 1 7.",
"8 q 7 q q 2 q q 2 ` <.>.>.>.>.` 9 q q q 9 q 2 ` >.>.>.] 2 q 9 7 q q q q q q 2 Q %.-.;.;.<...@ 6 <.! # , @.;.;.;.>.>.>.! # ; 1 7.",
"7 7 7 7 q q q q q 5 > ..>.-.-.{ [ E < Q { [ [ { ;.;.;.` 2 7 q 7 q q q 9 7 7 7 2 , t >.{ ;.] < 2 e w , w >.;.;.;.>.O., 4 2 5 , 7.",
"8 7 q 9 q 7 7 7 q - @ ^ >.-.;.;.,.` < ) >.;.>.;.;.| ,.$.qX<X1X0X9X<X#X7 q q 7 , @ 5 <.-.>.O.9 q 2 9 9 E @.>.;.-.>.` # = 9 r 1 7.",
"7 q 7 q 9 q 2 q q < 2 6 > ! >.{ >.y # ^ >.;.;.;.%.3.:X2XqXwXwXwXqX&X!.R.=X2.7 7 < e ,.` , 1 q q q 9 7 2 , r @.;.-.{ ] / = 4 ) t.",
"7 q q 9 7 q q q 7 q q - @ ^ ,.| <.t . y >.;.>.| 9X1XqXeXrXwX0X>X>X*X*X*XE.Q.<X7 2 W <./ @ - q q q q q < @ 4 <.>.-.>.>.O.@ 3 ' r.",
"8 7 q 7 q q q q 7 7 q 2 < q E r 4 y O.{ >.! 6 9X9XeXrX2XW.j.u.u.u.g.W.*X>X&Xv.:Xq q e q < 2 9 q q q q 7 5 5 , r <.-.;.{ O.+.' e.",
"7 7 7 q q q 2 9 q 9 q q q 9 2 - . t <.-.>.t 1XqXrX9XT.f.v H /.I K H M i.R.*X*Xb.:X9 9 q q q 7 q 9 7 2 q q < @ 3 &.;.;.;.>.>.' r.",
"O.[ [ e 2 q q 9 7 q 2 ( { [ [ ` ..t > ! -.1X9XeX9Xj.x /.oX].9 9 w F.5XP V B.*X&Xx.3X9 9 9 9 9 7 q q q 9 q 2 < q %.;.;.;.-.%.' r.",
"&.>.&._ 2 q q q q q 2 ` >.;.>.;.,.y . p ;X>XeX1Xg.c }.;.>.` 2 9 9 9 9 E OXV N.~.b.M.[.9 9 2 q 7 q q 9 q q q 9 e >.;.;.-.>.<.' r.",
"%.w < 2 q q q q 2 ( [ { >.{ -.-.%.i @ , Q.qXwXc.z |.;.-.;.{ [ ! 2 E ] { %.-Xa.x.m.x.U. .9 q q 9 q 9 q q 7 w ] [ >.;.;.O.1 t } e.",
"&.5 @ < q q q q 2 ` ,.>.-.-.>.>.<.i # 8XR.rX*Xp./.>.>.<.>.>.>.` 2 Q >.;.>.] .Xd.m.b.a.7X9 7 q 7 7 9 q q 2 e >.;.{ ;.,.O.# 3 ' S.",
"5 6 , 2 q q 9 2 q w e [ ;.;.;.Q 5 > $ 9X!.rXV.b 5Xi 6 0 4 Q >.{ O.{ ;.| | { 7XZ V.b.s.@Xq q 9 q 7 7 9 q 7 e %.;.;.+.0 5 1 5 w 0.",
"# , q 7 q q 9 q q 7 2 ` ,.>.,.r @ % $ W.&XwXj.P 2 = @ # @ 0 %.>.-.>.%.%.-.;.>.Y.c.m.s.R 2 2 7 q 9 q q q 2 e %.;.;...# * 8 r > 9.",
"6 7 7 q q 7 7 7 q 7 2 e e Q Q q 4 6 , W.~.9Xi._.+...o.u # r >.-.;.O.4 ^ >.| >.%Xh.V.s.R [ ( q q 7 q q q 2 e >.-.>.+.2 1 0 q , 9.",
"8 7 7 q q q 9 q q q q 2 2 2 2 7 2 q q ^.b.E.i._.,.>.,.^ @ r >.-.>.Q . 9 >.>.<.%Xx.N.d.R ,.+.2 7 q q q q 2 e %.>.-.{ 9 q q w > 9.",
"7 q q q q q q q q 7 q q q q q q q q 9 U.v.m.p.(.W ] ;.O.Q t 5 Q >...@ 0 >.] 1 $XZ.z.C I.( e q 7 q 7 q q 2 q 5 t >.@.] ` 9 q 1 8.",
"8 q 2 2 2 2 q q 9 q q q q 7 q 9 9 9 9 XXx.C.j.P 1 ` <.-.,.Q   r <...@ 0 <./ @ =X*Xh.S D.2 7 q q q 7 9 2 9 < @ , &.>.>.@.9 7 1 8.",
"7 ( ] ] ] e 2 q 7 q 2 q q q 7 9 q q 9 7Xk.C.x.M 5X9 5 ! >.] Q t 5 , $ ; 0 4 8X:X$Xa.S oX7 7 7 q 7 w ] ` [ _ < 5 0 w @.-.[ .., 7.",
"2 [ >.>.,.( 2 q 7 q q q 7 9 q 9 9 q 9 -XZ V.n.p.'., . t <.>.1. .@ $ $ $ # % :X0XK.F N 4X7 7 2 2 7 E >.>.>.[ 2 , @ > &.-.;.@.1 7.",
"X.{ %.Q 0 q q q q q q q q 9 q 7 q 9 7 q R h.C.M.D OX< 7 _ t r 3 $ - < , , :X0X:Xa.S P 7 2 w O.! q q 0 Q %.{ ] ` < q %.-.;.@.1 9.",
"%.%.>.5   , 2 7 9 2 2 2 q q q q 7 q q 2 q.U M.Z.l.D OX7 2 - @ # $ - q 2 <X>X8Xl.Y N 6Xw 2 E ,.@.2 < . > @.>.>.@.2 e %.;.;.%., 7.",
"%.! 9 W Q ) ` e 2 Q [ e q q q q 7 7 7 e [ oXn z.M.z.A Y.@X]., , , ].,X0X0X8Xl.F b }.q q 7 q 9 e ) ) / t 0 W %.%.) ] ;.;.-.-.~ t.",
"&.1   ..,.>.>.( 2 ` ,.( < q 9 q q 9 2 ` >.,.oXB L.L.l.A s.T.!.=X*X&X!.1X%XH.Y v }.7 q 2 9 , . 6 >.>.,.` @ , @.;.>.;.-.>.<.%.' e.",
"u y Q ] >.) E w 2 ` ;.[ ` e 9 q 2 E ` { ;.| | oXz F J.J.l.k.v.v.x.N.K.l.G D z }.9 q 2 w ` Q - w -.-.;.{ W ` ;.-.-.-.;.@.0 y ' t.",
"@ / ,.>.<.Q 2 q 7 ] >.;.>.` < 7 2 ` >.;.;.>.<.` oXL z U U U U G.G.T S S x J oX2 9 7 < E ,.[ 2 Q <.>.;.;.>.;.>.<.<.>.;.O.# 3 ' r.",
"$ Q ,.Q 0 0 q q 2 ` ;.;.;.[ ] e 2 ` ;.| >.! r r 9 9 `.+ O o o o o o + + `.8 q 7 7 e ` [ >.[ 2 q u Q ;.;.;.{ E Q r W -.O., 0 W 0.",
"#  .<.5 . < q q 2 X.>.>.| >.1._ < ` ,.;.>.w   = 9 5 9 7 |.|.{.{.`.{.6X5 2 2 2 7 2 E >.;.>.+.q 1 . > ;.;.>.[ 2 < @ > <.@.q q , 7.",
"3 5 i 6 , 5 9 q 9 r i ..>./ u 8 2 r i ..>.O./ / ` ` ] e 2 q q q 2 e ` ` ] ` X._ 2 E >.-.;...- 5 ^ o.| ;.;.[ 9 9 , 2 _ Q 9 t , 9.",
"8 = @ < q q q 9 q - . ^ <.r . , w -   t >.-.<.>.>.>.1.X.2 q q q 2 _ ,.>.;.>.>.+.1 E >.>.>.` @ 4 <.>.;.;.<.@.9 q 7 q 2 2 q q , 9.",
"8 < , 2 q q q q q < , t ` q , , - 5 W O.;.-.-.-.>.` r r q q 2 q 2 e ( ] ;.| ;.[ ( Q t Q >.[ t ! ;.-.;.] r r 9 q 7 q q q 9 r , 9.",
"7 q q q 2 q 9 q 2 7 7 9 2 9 7 - . Q ,.<.>.>.>.-.,.^ . - q 9 9 7 q q < Q ,.;.;.;.>.X.. 5 &.>.<.;.;.;.,...# * 2 q 7 q q q q q 1 9.",
"7 7 9 7 7 q q q q q q q q E ` Q W r t r y t t e ` t , < q 9 q q q q q q r ! -.{ ;.o.# , t Q -.-.;.] t 0 , < 2 q q q q q q r < 9.",
"8 7 2 9 7 2 2 2 q q q 2 < ` >.>.<.t @ # @ @ @ = 2 7 7 7 2 q q q q q q , @ 0 <.>.>.o.@ # . , >.-.,.] @ = 7 q 7 7 9 7 q q q q , 9.",
"7 q q q 9 E ) e 2 q q e ` [ ;.;.>.r # 4 ^ y y w q q 7 7 9 7 q q q q q 2 , 1 t ..%.+.t W y ! >.@.W 0 , < 7 q q q q 9 7 2 9 q , 9.",
"7 q q q 2 +.<.Q < q 2 [ >.;.;.;.<.t . ^ ,.>.<.` 2 q 7 2 q q 7 q 7 9 q q q , . 4 %.;.>.>.>.>.;...  $ 9 9 q q 2 7 7 q q q q w > 9.",
"8 7 7 7 7 w y W ` e 9 ` ;.;.;.] y t r ` >.] t w q q q q q q 7 7 q q q q 9 q y ..>.| ;.| -.{ ;.{ y W E E q q q 9 q q q q 9 q , 9.",
"7 9 2 7 2 - @ Q ,.E 1 ` >.;.;.0   W <.>.<.r . - 2 7 q q q 2 2 7 q 2 q q 2 E <.-.;.;.>.>.<.>.;.;.>.>.,.@.9 q 7 q 7 q q 2 q r , 9.",
"8 e ( ( _ 6 # ^ >.] E { ;.;.;...0 ] >.` t r t W ( e 7 q 7 w ( e q q q w E [ -.-.>.+.t W y ! ;.{ -.{ t t 9 q q 9 q 9 q q q r 1 7.",
"2 [ 1.>.,.r . Q >.;.>.;.;.;.;.>.>.>.;.t   t <.>.1.X.2 q 2 ` 1.] < 9 < E >.>.>.>.;./ . # @ 1 >.>.<.` @ * 9 q 7 q q 7 q 9 q q 1 7.",
"/ W ^ O.>.! r ] ;.;.;.-.;.;.;.;.;.;.;.] t / >.] p r 7 7 9 q p Q ` ( ` ] ;.[ y ..>.O.r 0 > 9 ` ` ` W - < 9 q q q q q q q q r 1 7.",
"&.9 . / <.>.>.>.;.;.>.>.;.;.,.;.;.;.;.;.>.>.<.t   - 2 2 q ,   0 ,.;.;.;.>.Q   4 >.%.,.+.9 9 2 2 7 7 q q q 9 q q 2 2 q q q q , 7.",
"&.0 # u ^ +.;.-.;.] ^ O.>.O.p ] { -.;.;.-.] ^ i i y ` t , 5 i / ;.{ ;.;.>.O.r / >.{ ` Q 9 9 q q q q q q q q 2 q ` e q q 7 t E 0.",
"&.5 # $ . / >.>.<.r   ^ <.r   W ,.>.-.;.,.t   i <.,.<.^ . i <.<.>.>.;.;.-.-.,.>.;.[ 1 2 2 2 q q q 7 9 2 2 2 9 e ,.+.q q 2 e ' e.",
"%.9 $ - - ` >.` ^ 5 - y O.q - 0 ^ O.;.[ ` w - y >.] W 0 - 6 ^ Q Q ` ` [ ;.-.-.-.;.{ E E E t , 6 7 w ( ( ! W > 0 >.O., 2 e ` ' e.",
"&.5 @ , 2 ] ,.9 @ , q 2 2 9 7 , . e ,.` < q 2 ` ,.p @ - 7 , # @ . = < E ,.>.>.;.;.;.,.,.,...@ - 2 e ,.>.<.O.@ > <...# > %.,.' e.",
"^ r r W E ( ..q - < q q 7 9 7 < - w ] e q q 2 e X.t ; < q 2 - 5 0 t ! W ^ Q W ` ;.+.W Q ] W - , q q e ` %.+.9 y >.+.q W %.>.' t.",
"@  .<.%.,.Q 2 q 7 7 7 7 7 q 7 9 q 7 2 7 q 7 7 7 2 7 q q 7 7 2 _ <.>.<.Q @ $ @ 0 ,.o.@ - 2 q q q q < @ , %.-.&.>.>.-.%.>.%.>.' e."
};
