/* XPM */
static char *result[] = {
/* columns rows colors chars-per-pixel */
"64 64 237 2 ",
"   c #5D3203",
".  c #653604",
"X  c #62330E",
"o  c #7B3D00",
"O  c #4D3932",
"+  c #504E03",
"@  c #565705",
"#  c #585819",
"$  c #744C0C",
"%  c #784809",
"&  c #5F610C",
"*  c #666606",
"=  c #74760A",
"-  c #666815",
";  c #706E11",
":  c #757717",
">  c #7B7D1C",
",  c #55542B",
"<  c #4C493B",
"1  c #774D2D",
"2  c #6D6D28",
"3  c #797B27",
"4  c #4E4B47",
"5  c #585649",
"6  c #5A5A59",
"7  c #5A6554",
"8  c #66665A",
"9  c #62605E",
"0  c #6D7658",
"q  c #727850",
"w  c #585C6A",
"e  c #646465",
"r  c #696965",
"t  c #6B6B6B",
"y  c #77756C",
"u  c #6E6D74",
"i  c #6E7173",
"p  c #747373",
"a  c #7C7B74",
"s  c #7B7B7B",
"d  c #844401",
"f  c #894B03",
"g  c #884804",
"h  c #924D00",
"j  c #8A530A",
"k  c #955402",
"l  c #9D5A02",
"z  c #975608",
"x  c #9D5C0B",
"c  c #895812",
"v  c #965E14",
"b  c #A45D01",
"n  c #A95D00",
"m  c #986E0E",
"M  c #896315",
"N  c #986714",
"B  c #A46204",
"V  c #AA6603",
"C  c #AC6904",
"Z  c #A4630C",
"A  c #A9660C",
"S  c #AD6A0C",
"D  c #B36C03",
"F  c #B26E0C",
"G  c #B77307",
"H  c #BB7301",
"J  c #B5710D",
"K  c #BB750D",
"L  c #A66712",
"P  c #B16F15",
"I  c #A47B14",
"U  c #B57312",
"Y  c #B97612",
"T  c #BD7A13",
"R  c #B5741B",
"E  c #8A562C",
"W  c #946B2F",
"Q  c #AD7629",
"!  c #C37B08",
"~  c #C27D13",
"^  c #C77E14",
"/  c #967047",
"(  c #A67C49",
")  c #8A766E",
"_  c #7E8100",
"`  c #7E8119",
"'  c #7F8121",
"]  c #7F8129",
"[  c #7E803E",
"{  c #7A835E",
"}  c #7F856D",
"|  c #868806",
" . c #91930C",
".. c #83861D",
"X. c #878919",
"o. c #95971A",
"O. c #B18B1E",
"+. c #A8AA1F",
"@. c #838523",
"#. c #868922",
"$. c #8A8C23",
"%. c #84852B",
"&. c #86882B",
"*. c #8A8C2A",
"=. c #928D2E",
"-. c #8F922A",
";. c #959725",
":. c #92942B",
">. c #96992D",
",. c #9A9D2C",
"<. c #898B36",
"1. c #939534",
"2. c #969933",
"3. c #9A9C34",
"4. c #94963A",
"5. c #9B9D3A",
"6. c #B19B2E",
"7. c #A49936",
"8. c #9EA02E",
"9. c #9FA235",
"0. c #9EA23A",
"q. c #A2A42D",
"w. c #A6A92B",
"e. c #B4B62D",
"r. c #A3A535",
"t. c #A5A934",
"y. c #AAAC35",
"u. c #A2A43B",
"i. c #A6A93C",
"p. c #ABAD3B",
"a. c #AEB134",
"s. c #A7B03F",
"d. c #AEB13C",
"f. c #B2B435",
"g. c #B7BA36",
"h. c #B2B53B",
"j. c #B6B93B",
"k. c #BABD3C",
"l. c #D08602",
"z. c #C68013",
"x. c #CB8414",
"c. c #CB8619",
"v. c #CE8818",
"b. c #D38A16",
"n. c #D38C1A",
"m. c #D9911B",
"M. c #E29614",
"N. c #D48F21",
"B. c #BEC03E",
"V. c #C7CA33",
"C. c #C3C63B",
"Z. c #888A43",
"A. c #969846",
"S. c #868D5B",
"D. c #8E9053",
"F. c #9EA24B",
"G. c #A3A543",
"H. c #A6A942",
"J. c #ACAE44",
"K. c #AAAC4A",
"L. c #AEB143",
"P. c #ADB04B",
"I. c #B2B544",
"U. c #B6B943",
"Y. c #BABD43",
"T. c #B2B44C",
"R. c #B6BA4A",
"E. c #BABD4B",
"W. c #A6A858",
"Q. c #BBBE51",
"!. c #838B65",
"~. c #8C9567",
"^. c #949C67",
"/. c #85867A",
"(. c #9CA567",
"). c #A7AC66",
"_. c #BEC144",
"`. c #BEC14C",
"'. c #BFC849",
"]. c #BEC051",
"[. c #C2C544",
"{. c #C6C943",
"}. c #C9CC47",
"|. c #C2C54B",
" X c #C6C94B",
".X c #CACD4D",
"XX c #CED146",
"oX c #CED14C",
"OX c #D2D545",
"+X c #D2D54C",
"@X c #D6D94D",
"#X c #D9DC4E",
"$X c #C4C754",
"%X c #CACD52",
"&X c #CDD151",
"*X c #CDD158",
"=X c #D1D451",
"-X c #D6DA52",
";X c #DADD51",
":X c #DEE14D",
">X c #E5E84E",
",X c #E2E553",
"<X c #7D7D85",
"1X c #7E838B",
"2X c #838383",
"3X c #858788",
"4X c #8C8C8C",
"5X c #948E8C",
"6X c #93938D",
"7X c #99948B",
"8X c #8C8D92",
"9X c #939393",
"0X c #979898",
"qX c #9B9B9C",
"wX c #AB9991",
"eX c #9FA092",
"rX c #AAAA98",
"tX c #9A9CA3",
"yX c #9DA1A6",
"uX c #A4A4A4",
"iX c #A6A6AA",
"pX c #ACACAB",
"aX c #ADADB2",
"sX c #ADB0B2",
"dX c #B3B3B3",
"fX c #B4B5BB",
"gX c #BBBBBB",
"hX c #C0C0BF",
"jX c #B9BBC2",
"kX c #BFC1C3",
"lX c #C4C4C4",
"zX c #C6C6C8",
"xX c #CCCCCC",
"cX c #CECED1",
"vX c #D4D4D4",
"bX c #D9DADC",
"nX c #E4E5E7",
/* pixels */
"0 [.u.E..X+Xk.I.1.@X:X_.G..X#X#X#X#X#XoX@X=X_.'.m n.m.T b x.m.n.m.m.m.x.n.n.Y H t.XX`.I.I.{.$.$.=.`.0.Y.%XOXY.I.1.-X:XY.U.,X#X.X",
"^.+XU.p.|.i.Y._.d.,X+X+Xj.,.:.j.9._.I.%X-X$Xi.s.I m.v.N.Y z z P A Y S ^ b.! A b 7.&X|.[.q.E.I.P.%X%XU.L.'.i.k._.d.,X+X@Xy._.L.%X",
"{ C.%X2.Y.u.,.:.-.{.|.oXa.y.` X.o.#.H.2.t.p.t.#.M ~ ~ c.S A g j z d B x Z A Z d ; j.U.Y.k.5.Q.E.Y.U..X>.Y.u.>.-.-.{.|.=X8...H.2.",
"{ |.|.i.C.XXq.p.* o.h.i.I.K.L.j.y.j.9.' #._. Xt.. h U B F V V F Z P b g f U x.l W |.`. X XU.+X+XL.`.|.i.C.XXq.d.* o.h.u._.d.9.@.",
").XXT.`.U.p.h.E.3.XXq.> d.I.U.t.d._.J.&X.X.X-X`.N n.Z d S P J A F U A c.x.x.m.D 7.|.T.I._.t.8.&XY..XT.`.U.p.h.E.5.XXr.= .XU.J.=X",
"^.f.`.E.P.G.U.3.u.$Xu.-.K.oXI.k.XX&XoX XJ.B.&X'.O.Y x z A c.U R c.x.v.^ V Y x.! 6.i.2.T.P.0.&.&.R.a.`.R.K.K.U.9.9.$Xu.*.|.oXXX%X",
"!.o.Y.E.u.5.U.$.5.y.r.r.Q.-X`.=X@Xy.8.| s.t.U.@XI b l b H l.H b.x.A b g S n F b.$.i.:.`. X*X_.8.Q.o.k.`.9.5.Y.$.0.y.i.r.E.d.,.X.",
"7 = $.5.1.> *.- @ X.-.2 3 u.4.3.Z., , [ K.Z.Z.F.1 E W 1 E W W Q j . . g A f j v + ; @ *.-.<.2 W 2 2 <.1.A.; %.# + _ #.2 [ , # 3 ",
"~.OX;Xh.d.@X+X.X`._.@.: i.{.h.y.) zXbXpXr fXcXcXvXvXcXjXcXkXyXsX/ ! K F A ~ g o h Y Z C G ! R n 7XhXqX6X8XdXa e i pX8XiXaXzXpXqX",
"(.>X=X@Xy.`.I.*Xk.E.I.T.|.p.Y.V.rXnXcXvXsX} ) pX9XaX9XgXcXsX4X0X( ! ~ ^ A Y S S z.x.Y U ~ A R ! wXkXdXgX9XiX9X4XdXgXpXiXdX4XpXlX",
"S.C.|.=X,.X.i.3.>.u.Q.R.oX3.>. .!.jXsXkXtX4Xe p s 6 1X} 4X4X3Xe 1 D J K T k K K K Y x.z R A v b 8 wXqXpXgXi yXqXpXpXgXa iX5X4X9X",
"q  .h.i.Y.f.u.> q.E.+X+Xk.XXq.f.4 i uX3XqX1X4XqX9XyXs r t pXgX8X1 ! T ~ ~ F n.v.A T T A ^ c.L n ) aXpXgXdX9XvXxX4XuXdX6XgXxX0XqX",
"^.OXr.= %XU.J.&X=Xq.r.=Xu.p.I.f.7XxX6Xe 9X0XqX9X0XuX4XlXgXhXvXiXW ! P S ~ Z Z c.T z.D T F A P D 7XiX0X9XiXqX4XlXgXgX4XdXqX4X9XdX",
"(.[.G.*.|.oX+X XK.u.%.$.K.K.U.o.eXuX} i 2XzXqXsXzXhXxXgX4XdXlXfXD.b z S n b j j Y A ~ U A A R k wX3Xp 8X2X/.p s qX9XpXqX4X/.0X4X",
"(.w.r.u.Q.L.;...h.*XE.u.I.3.Y. .6X3X) a qXcXqXlXkX9X4Xe 4X3X0XbX/ b z ~ ^ ~ Y Z H k H G b l D h ) 3Xu uXfXsXpX4XqX) pXqXs s qX<X",
"7 | *.2 %.@ @ *.*.4.2 @.&...$.* 5 a 3X7 /.qX/.6Xa 5 < t 6Xe a qXX o X c v v % k 1 1 E v E E E 1 < w 4 a 2X2X9 s e 7 r a p 0 t 5 ",
"0 k.5.J.|..XU.U.5.[.U.H.k.+X=X X+X@XOX[.C.C.I.h.8.{.R.J.y._.= _ =.U.0.L.`.{.h.y./.zXbXuXqXbXcXhXpXdXa 6 9XlXpX9XZ.&X;XU.p.@X=X|.",
"^.+XY.p.=X%Xp.i.i.oX|.|.y.[.I.=XY.Y.R.%X;X*Xp.i.i.oX|. Xt.`.I.T.%X.XY.I. Xp.Y.V.rXnXcXvXuXpX9XgXpXuX9X8XpX4XpXgXW.>X+X#Xa.[.U.%X",
"{ C.%X2.y.p.r.$.: U.U.Y.y...H.3.*.$.H.1.r.p.i.$.: I.U.Y.k.5.].E.Y.Y.%X>.Y.u.>. .~.gXpXlX5X6 2X2X2Xs qXqXlX4X8X8XZ.{.|.*X8...H.2.",
"!.[.`.p.d.U.oX7.%.|.`.|._.f.0.> ;.j.9...$.B..X3.%.|.`. X[.I.@X+XL.`.|.u.C.XXq.f.4 u uX2XpX0Xs 9 0XqXcXzXiXxX0XtX- ;.f.u._.d.7.#.",
"(.XXT._. XoX#XI.0.'.T.I.R.U.J.+X%XU.J.oX%X.X;XR.0.'.T.I.`.w.9.&XE..XT._.E.p.I.g.7XxX5X6 gXqX4XhXlX0X4XxX2X5X0XiXA.OXq.; .XU.L.&X",
"^.a.].E.P.B.&X|.h.u.2.T.|..X+X|.`.oXOX|.J.k.=X[.j.u.1.T.K.0.&.#.R.y.`.R.P.H.U.o.eXuXs r dXlXxXgXa 2Xp 2X3X2XqX<XF.|.G.*.`.oXXX.X",
"!.o.k.R.L.i.U.@X$.0.:._.+Xp.;.X.U.h.,.X.L.i.R.@X$.0.:.`.%X%XE.5.E.,._.E.7.5.k. .7X4X2Xs uX0X4Xe qXdXpX8X5Xp uXu F.y.9.r.`.I.,...",
"e 3 <.4.F.<.<.W.- ; # %.A., , 3 5.@ @ %.i.&.-.7.- = @ &.*.1.3 @.; * ..2.=.> #.* 4 t s 6 y 4 < y 3X/.8 p y r r 5 # ` <.3 ] @ @ &.",
"1XzXbXuXqXbXcXjXpXdXs 6 9XxXpX9Xq OX#Xh.a.#X.X|.E.Y.#.: u.{.h.H.N c.G V K b.n.z.J U l D H v.R D ;.C.U.i.k.@X@X.XI.I.5.L. X.XI.|.",
"iXnXcXvXqXpX9XhXpXuX8X4XpX4XpXjXW.>X=X#Xy.'.U.=Xk.E.I.R.|.p.Y. XO.^ O.z.S ~ S x.c.z.T U n.z.A b 6.&X|. Xy.`.I.%X=XoXY.d.oX%Xt.U.",
"1XhXsXlX4X6 /.1X1X) tX0XlX3X8X8XZ.{.|.=X,...H.2.>.5.E.E..Xu.,.>.$ J J Y P d B x b T x.z S Z Z d ; R.U.Y.a...H.2.0._.%X2.p.p.r.:.",
"w t uX2XpX0Xs 9 0X0XvXzXiXcX9XtX- o.f.i._.d.9.> r.E.+X+Xj.XXq.p.j z.K z.Y S l g z K ~ S S U x.l W  X`.}.Y.a.u.` 1.|.`.p.a.U..Xy.",
"tXxX8X6 gXyX4XhXzX0X4XxX2X4X0XyXA.+Xr.= %XU.L.&X=Xq.9.+X0.p.h.R.I ~ F F F K V x.n.^ D T ~ x.m.D 3.'.R.L.R.Y.J.*X+X XT.Y. XoX@X|.",
"yXyX<Xt dXlXxXfXs 2Xp 2X4X2X0X<XF.$XG.=.`.oXXX XK.u.*.*.K.K.U.5.m n k C ~ x.v.~ F A T G F Y b.G 6.i.2.T.|.XXXX XE.p.|.Q.T.k.&X%X",
"yX3X1X} uX0X4Xe qXdXpX4X6Xs qX<XA.y.r.r.`.d.,.X.h.%XE.7.I.4.U.;.c b h ! ^ A b g A z J K V b J m.=.0.:.`.%Xs.,.X.J.>.Y.E.J.i.I.,X",
"w p /.7 a 4 < } 3X2Xe p p 6 e 4 , | ..2 [ , # 3 =.1.2 $.@.> $.- . o . j v   . j c $ j z L f j x + ; @ *.2.+ @ @.] ; X.1.i.&.*.i.",
"(.#XXX[.C..XU.e.7XdXuX6X6XfXs r i sX9XuXsXzXiXtXE ! n.F V n.n.c.T T j % Z c.Y n 7.}.R.L.p._.W ` *._.5.J.`.{.k.i.2.}.Y.p._.@XXXE.",
"q {.T.%X;X$Xh.+.rXjXdXdX6XiX9X4XdXfXpXiXdX4XpXjXQ M.n.n.P T C x.U Y S D ! A Y ! t.&X[.|.t.`.L.T.%X%X_.L. Xi._._.d.oX|. Xt._.I.%X",
"7  .H.2.p.p.i.X.7 qXuXpXfXp qXqXpXpXgXa iX4X6X8XE O.T c.x g B x x l K J c.Z v b M j.U.Y.k.5.Q.E.B._.'.8._.i.,.:.= U.U.Y.a...H.3.",
"S.g.5...$.Y. Xw.y dXuXgXdX9XvXxX4XuXdX9XgXxX9XtXX k U B K A l g Z J n.v.P c.L n %. X`. X{.I.@X+XJ.].'.0.B.XXq.p.&. X`. X_.d.9.@.",
"^.C.K.=X%X%X#Xf.7XpX0X6XuXqX4XlXdXhX4XdXqX5X0XiXW l.Z o x.F A x.^ L Z c.Z A P D 7.'.T.L.E.w.7.&X_..XT.`.R.y.I.U.u.`.T.I.I.U.J.&X",
"(.+X+X|.L.g.*XV.rX4Xp 6X2X2Xp s qX6XpX0X3X/.qX1X( H Z f ~ x.x.z.n Z j v A A F k 2.s.1.T.P.u.&.*.R.t.'.R.P.G.I.0.,.i.2.P. XoX+X X",
"^.g.>.X.L.i.U.OX/.3Xi uXfXdXiX8XqXs pXtX<Xs yXu W b b l K S x d F l.G b n h H h m H.1.'..X%XY.,.].-.B.`.0.5.Y.$.@.0.*.`.oXs.,...",
"0 @ @ 3 J.&.$.q.< 6 4 /.2X/.8 } 8 6 8 ) y 8 r 4 1 k v % j X . z v E E j E E E 1 # * + <.<.A.q Z.3 ; ` 0.1.` *.- & > - :.3.+ & &.",
"^.C.E.H.k.@X.X|.I.I.0.d.{.C.h._.m x.m.R k O.b.b.n.n.v.~ c.c.R D wXjXyX4XdXbXvXkXuXuX0XuXgXlXqXaXD.XX#Xk.5.[.@X@X+X+X+X|.}.oXI.|.",
").OX|. Xy.[.U.&X&X%X_.d.&X*Xs.H.Q M.v.n.Y x k G Z ~ F z.b.^ L b wXjXdXfX0XsX9XgXlXdXpXuXlXdX5X9XW.>X=X@Xk.,.-.g.y.[.I.&X-X$Xy.U.",
"0 g.U.Y.y...H.2.9._. X2.y.p.i.#.M z.T c.F A g j j f B x B A Z g 5 qXqXpXiX4 3X2X) pXfXs 0X4X3Xw Z.{.|.%Xa.y.> X.o.#.H.1.r.p.r.-.",
"!.{.E.}.Y.d.u.` 1.$X`.p.d.j..Xt.. h P B F V A F A S l g f T c.l y sXpXgXpXqXa e s pXdX0X0XuXhX8X- o.f.i.I.K.L.U.t.f.9.@.$.Y..Xy.",
"(.C.T.I.U.Y.J.*X+X XT._.%X&X;X`.N b.b % S F F L S K V v.x.x.N.D wXpX0X9X0XuX4XgXcXjX8XsXdXlXvXiXZ.@Xq.> d.I.U.t.d.E.J.oX.X%X#X|.",
"(.t.4.P.|.oX+X|.R.a.`.Q.L.g.&X'.O.K Z k V x.F U c.x.v.z.V Y n.! wX3Xp 4XdXlXxXdX0X9XpXqX4XdXzXfX).|.G.:.K.&XI.k.XX.XOX XJ.k.&X X",
"{ q.1.|.&Xp.,.X.d.>.Y.R.J.i.U.;XI Z B b H n.K b.x.A b g A B U l.) 3Xi uXgX9X4Xt 3X} iXqX4X2X9XvXW.w.q.q.R.-X`.+X&Xp.,.X.d.i.I.,X",
"7 = @ &.1.+ @ @.] ; $.1.u.] ..0.  d c $ c N x Z j X . g S d j l O w 4 a 5X< O i 1X9 t s 2Xp 2XtX2 $.4.q Z.G.A.W.<.@ @ %.H.&.*.i.",
"S.C.@.> u.oXj.i.3.}.E.p.p.Y.> > <.Y.5.L.`.{.h.J.m O.K V A T g % j T L D H c.R n ) zXbXpXt gXcXzXcXvXcXfXxXjXqXaXS.}.#Xh.p.@XXXE.",
"0 {.L.T.|.p.Y.[.f.%X|.}.r.|.I.I.%X.XY.I. Xp.B.'.O.z.~ ^ A K S S z.z.Y R ^ A R ! wXnXcXvXpX<X} pXtXaX9XgXcXdX9X9XW.>X=X@Xa.`.R.%X",
"0 r.E.R.}.0.,.:.: k.U.U.k.5.Q.E.Y.U..X>.Y.i.>.;.$ F U U T l K K Y Y ^ z Y Z v b ) lXpXlXqX6Xr p s 6 2X2X4X4X2Xw <.XX|.=X8...i.2.",
"^.k.+X=Xk.XXq.p.&.|.E.}.|.I.@X+XL.`.|.i.B.XXq.s.j ~ K ^ ~ S n.x.S K ~ Z ~ c.L C < p uX3X0X2X3XuX9XqXs e t pXgX8X# ;.f.i._.d.7.#.",
"(.w.9.oX0.p.h.R.0._.R.L.E.t.q.%XY. XT.`.R.p.d.`.I K F F K L Z c.T x.D T J Z P H 7XxX8Xe 9X0XqX9X0XuX4XlXgXhXvXiX4.+Xr.= .XU.J.=X",
"!.y.&.*.K.K.U.3.3.i.4.T.K.u.*.*.R.a.`.Q.P.H.I.0.m A z F V b j z J A T K D B R h wXuXa p 3XzXqXsXxXhXxXfX4XdXzXfX).'.G.*.|.oXXX X",
"~.=XE.5.I.4.Y.-.#.u.:.`.%X%XY.5.E.:.U.E.0.0.U.;.c n h ! ^ z.K A G z J K l l R g 7X8X<X) 0XcXtXlXkX5X8Xe 4X} 0XvXW.w.0.0.`.d.,.#.",
"8 ,.3 ] &.: #.& + ; @ <.=.1.3 *.3 = X.0.<.` *.- @ c X N N c % j % $ j z v % g . O t <X6 ) qX/.6Xa 5 < p 6Xy 2XqX2 o.=.3 %.@ @ 3 ",
"^.C.R.H.i.Y.#.#.<.U.5.L.|.|.L.U.1.&X#Xk.4.|.@X@X`.|.@XoX X'.k.H.2.}.E.J.p.Y...X.=.U.3.h.{.C.h.h.:.oX#Xj.1.{.OXV.R.E.+X+X X}.j.I.",
"(.OX|.}.t.`.L.I.%XoXY.d.+X*Xy.i.H.,X+X@Xk.,.-.j.j.,.:.h.k.p.B._.d.%X|.}.r.|.I.T.%X.XY.L.=X$Xp.i.H.,X=X@Xk.,.>.g.j.,.:.h.U.p.k..X",
"0 g.U.Y.k.5.`.E.Y.Y.%X2.p.H.y.#.&.{.|..Xf.p.> X.q.y.` | _.u.,.:.= U.U.k.k.5.Q.Q.Y.U.%X3.d.p.i.#.*.{.|.%Xf.p.> X.q.i.` | Y.u.>.>.",
"S.B.E.|.[.L.+X+Xp.`.'.t.y.h.}.r.* o.f.i.L.J.h.h.8.T.h.s.a.XX8.t.&.[.E.|.[.J.+X+Xp.`.|.t.y.h.}.r.* o.f.u.I.J.L.h.q.I.I.d.a.OX8.h.",
"0  .3 : ..* * : > 3 ..> @.- - > - ..` : #.- & : > ' #.' ; & ; : ; $.> > @.* * = ' 3 ` ` ' - - 3 - X.` : $.- - : > ' #.' ; & ; > ",
"^.k.8.E.Y.8.&.9.E.U.U.E.E.-.f.R.|.U.q.U.k.3.*.r.E.I.j.E.`.:.d.E.|.U.q.U.Y.8.*.u.U.U.Y.E.E.:.h.R.|.U.q.R.Y.,.#.u.U.U.U.E._.:.d.R.",
"~.|.%XE.p.[.;X$X.X[.k.y.Q.I.].$XQ.Q..XE.d._.-X$X.X[.Y.t.Q.I.].].Q.Q..XE.s._.-X$X%X[.B.r.E.I.|.].Q.E..XE.p.[.-X$X%X_.k.t.Q.I.`.].",
"S.g.f.j.j.a.j.f.h.k.g.t.5.y.f.d.a.j.h.j.j.a.j.f.j.k.g.t.5.y.j.h.p.j.h.j.g.a.g.h.h.k.g.t.0.y.f.h.p.j.h.j.j.a.j.f.j.k.g.t.0.y.h.j."
};
